%TF.GenerationSoftware,KiCad,Pcbnew,9.0.1*%
%TF.CreationDate,2025-07-07T17:58:15-06:00*%
%TF.ProjectId,MixDeck v1,4d697844-6563-46b2-9076-312e6b696361,rev?*%
%TF.SameCoordinates,Original*%
%TF.FileFunction,Soldermask,Bot*%
%TF.FilePolarity,Negative*%
%FSLAX46Y46*%
G04 Gerber Fmt 4.6, Leading zero omitted, Abs format (unit mm)*
G04 Created by KiCad (PCBNEW 9.0.1) date 2025-07-07 17:58:15*
%MOMM*%
%LPD*%
G01*
G04 APERTURE LIST*
G04 Aperture macros list*
%AMRoundRect*
0 Rectangle with rounded corners*
0 $1 Rounding radius*
0 $2 $3 $4 $5 $6 $7 $8 $9 X,Y pos of 4 corners*
0 Add a 4 corners polygon primitive as box body*
4,1,4,$2,$3,$4,$5,$6,$7,$8,$9,$2,$3,0*
0 Add four circle primitives for the rounded corners*
1,1,$1+$1,$2,$3*
1,1,$1+$1,$4,$5*
1,1,$1+$1,$6,$7*
1,1,$1+$1,$8,$9*
0 Add four rect primitives between the rounded corners*
20,1,$1+$1,$2,$3,$4,$5,0*
20,1,$1+$1,$4,$5,$6,$7,0*
20,1,$1+$1,$6,$7,$8,$9,0*
20,1,$1+$1,$8,$9,$2,$3,0*%
%AMFreePoly0*
4,1,37,0.800000,0.796148,0.878414,0.796148,1.032228,0.765552,1.177117,0.705537,1.307515,0.618408,1.418408,0.507515,1.505537,0.377117,1.565552,0.232228,1.596148,0.078414,1.596148,-0.078414,1.565552,-0.232228,1.505537,-0.377117,1.418408,-0.507515,1.307515,-0.618408,1.177117,-0.705537,1.032228,-0.765552,0.878414,-0.796148,0.800000,-0.796148,0.800000,-0.800000,-1.400000,-0.800000,
-1.403843,-0.796157,-1.439018,-0.796157,-1.511114,-0.766294,-1.566294,-0.711114,-1.596157,-0.639018,-1.596157,-0.603843,-1.600000,-0.600000,-1.600000,0.600000,-1.596157,0.603843,-1.596157,0.639018,-1.566294,0.711114,-1.511114,0.766294,-1.439018,0.796157,-1.403843,0.796157,-1.400000,0.800000,0.800000,0.800000,0.800000,0.796148,0.800000,0.796148,$1*%
%AMFreePoly1*
4,1,37,1.403843,0.796157,1.439018,0.796157,1.511114,0.766294,1.566294,0.711114,1.596157,0.639018,1.596157,0.603843,1.600000,0.600000,1.600000,-0.600000,1.596157,-0.603843,1.596157,-0.639018,1.566294,-0.711114,1.511114,-0.766294,1.439018,-0.796157,1.403843,-0.796157,1.400000,-0.800000,-0.800000,-0.800000,-0.800000,-0.796148,-0.878414,-0.796148,-1.032228,-0.765552,-1.177117,-0.705537,
-1.307515,-0.618408,-1.418408,-0.507515,-1.505537,-0.377117,-1.565552,-0.232228,-1.596148,-0.078414,-1.596148,0.078414,-1.565552,0.232228,-1.505537,0.377117,-1.418408,0.507515,-1.307515,0.618408,-1.177117,0.705537,-1.032228,0.765552,-0.878414,0.796148,-0.800000,0.796148,-0.800000,0.800000,1.400000,0.800000,1.403843,0.796157,1.403843,0.796157,$1*%
%AMFreePoly2*
4,1,37,0.603843,0.796157,0.639018,0.796157,0.711114,0.766294,0.766294,0.711114,0.796157,0.639018,0.796157,0.603843,0.800000,0.600000,0.800000,-0.600000,0.796157,-0.603843,0.796157,-0.639018,0.766294,-0.711114,0.711114,-0.766294,0.639018,-0.796157,0.603843,-0.796157,0.600000,-0.800000,0.000000,-0.800000,0.000000,-0.796148,-0.078414,-0.796148,-0.232228,-0.765552,-0.377117,-0.705537,
-0.507515,-0.618408,-0.618408,-0.507515,-0.705537,-0.377117,-0.765552,-0.232228,-0.796148,-0.078414,-0.796148,0.078414,-0.765552,0.232228,-0.705537,0.377117,-0.618408,0.507515,-0.507515,0.618408,-0.377117,0.705537,-0.232228,0.765552,-0.078414,0.796148,0.000000,0.796148,0.000000,0.800000,0.600000,0.800000,0.603843,0.796157,0.603843,0.796157,$1*%
%AMFreePoly3*
4,1,37,0.000000,0.796148,0.078414,0.796148,0.232228,0.765552,0.377117,0.705537,0.507515,0.618408,0.618408,0.507515,0.705537,0.377117,0.765552,0.232228,0.796148,0.078414,0.796148,-0.078414,0.765552,-0.232228,0.705537,-0.377117,0.618408,-0.507515,0.507515,-0.618408,0.377117,-0.705537,0.232228,-0.765552,0.078414,-0.796148,0.000000,-0.796148,0.000000,-0.800000,-0.600000,-0.800000,
-0.603843,-0.796157,-0.639018,-0.796157,-0.711114,-0.766294,-0.766294,-0.711114,-0.796157,-0.639018,-0.796157,-0.603843,-0.800000,-0.600000,-0.800000,0.600000,-0.796157,0.603843,-0.796157,0.639018,-0.766294,0.711114,-0.711114,0.766294,-0.639018,0.796157,-0.603843,0.796157,-0.600000,0.800000,0.000000,0.800000,0.000000,0.796148,0.000000,0.796148,$1*%
G04 Aperture macros list end*
%ADD10R,2.250000X2.250000*%
%ADD11C,2.250000*%
%ADD12C,3.000000*%
%ADD13C,1.700000*%
%ADD14C,4.000000*%
%ADD15C,2.200000*%
%ADD16RoundRect,0.150000X0.150000X-0.875000X0.150000X0.875000X-0.150000X0.875000X-0.150000X-0.875000X0*%
%ADD17C,1.850000*%
%ADD18FreePoly0,180.000000*%
%ADD19RoundRect,0.200000X0.600000X0.600000X-0.600000X0.600000X-0.600000X-0.600000X0.600000X-0.600000X0*%
%ADD20RoundRect,0.800000X0.800000X0.000010X-0.800000X0.000010X-0.800000X-0.000010X0.800000X-0.000010X0*%
%ADD21C,1.600000*%
%ADD22FreePoly1,180.000000*%
%ADD23FreePoly2,180.000000*%
%ADD24FreePoly3,180.000000*%
G04 APERTURE END LIST*
D10*
%TO.C,RV7*%
X542914936Y-220730000D03*
D11*
X546714936Y-220730000D03*
X542914936Y-348230000D03*
D12*
X541964936Y-240780000D03*
X541964936Y-323280000D03*
%TD*%
D10*
%TO.C,RV2*%
X441299873Y-220730000D03*
D11*
X445099873Y-220730000D03*
X441299873Y-348230000D03*
D12*
X440349873Y-240780000D03*
X440349873Y-323280000D03*
%TD*%
D10*
%TO.C,RV10*%
X603883975Y-220730000D03*
D11*
X607683975Y-220730000D03*
X603883975Y-348230000D03*
D12*
X602933975Y-240780000D03*
X602933975Y-323280000D03*
%TD*%
D13*
%TO.C,SW2*%
X734300000Y-216430000D03*
D14*
X739380000Y-216430000D03*
D13*
X744460000Y-216430000D03*
D15*
X741920000Y-211350000D03*
X735570000Y-213890000D03*
%TD*%
D13*
%TO.C,SW6*%
X734300000Y-340270000D03*
D14*
X739380000Y-340270000D03*
D13*
X744460000Y-340270000D03*
D15*
X741920000Y-335190000D03*
X735570000Y-337730000D03*
%TD*%
D10*
%TO.C,RV9*%
X583560962Y-220730000D03*
D11*
X587360962Y-220730000D03*
X583560962Y-348230000D03*
D12*
X582610962Y-240780000D03*
X582610962Y-323280000D03*
%TD*%
D10*
%TO.C,RV1*%
X420976860Y-220730000D03*
D11*
X424776860Y-220730000D03*
X420976860Y-348230000D03*
D12*
X420026860Y-240780000D03*
X420026860Y-323280000D03*
%TD*%
D10*
%TO.C,RV8*%
X563237949Y-220730000D03*
D11*
X567037949Y-220730000D03*
X563237949Y-348230000D03*
D12*
X562287949Y-240780000D03*
X562287949Y-323280000D03*
%TD*%
D10*
%TO.C,RV6*%
X522591924Y-220730000D03*
D11*
X526391924Y-220730000D03*
X522591924Y-348230000D03*
D12*
X521641924Y-240780000D03*
X521641924Y-323280000D03*
%TD*%
D10*
%TO.C,RV12*%
X644530000Y-220730000D03*
D11*
X648330000Y-220730000D03*
X644530000Y-348230000D03*
D12*
X643580000Y-240780000D03*
X643580000Y-323280000D03*
%TD*%
D13*
%TO.C,SW5*%
X684380000Y-340270000D03*
D14*
X689460000Y-340270000D03*
D13*
X694540000Y-340270000D03*
D15*
X692000000Y-335190000D03*
X685650000Y-337730000D03*
%TD*%
D10*
%TO.C,RV5*%
X502268911Y-220730000D03*
D11*
X506068911Y-220730000D03*
X502268911Y-348230000D03*
D12*
X501318911Y-240780000D03*
X501318911Y-323280000D03*
%TD*%
D13*
%TO.C,SW1*%
X684380000Y-216430000D03*
D14*
X689460000Y-216430000D03*
D13*
X694540000Y-216430000D03*
D15*
X692000000Y-211350000D03*
X685650000Y-213890000D03*
%TD*%
D10*
%TO.C,RV4*%
X481945898Y-220730000D03*
D11*
X485745898Y-220730000D03*
X481945898Y-348230000D03*
D12*
X480995898Y-240780000D03*
X480995898Y-323280000D03*
%TD*%
D10*
%TO.C,RV3*%
X461622885Y-220730000D03*
D11*
X465422885Y-220730000D03*
X461622885Y-348230000D03*
D12*
X460672885Y-240780000D03*
X460672885Y-323280000D03*
%TD*%
D10*
%TO.C,RV11*%
X624206987Y-220730000D03*
D11*
X628006987Y-220730000D03*
X624206987Y-348230000D03*
D12*
X623256987Y-240780000D03*
X623256987Y-323280000D03*
%TD*%
D13*
%TO.C,SW3*%
X684380000Y-278350000D03*
D14*
X689460000Y-278350000D03*
D13*
X694540000Y-278350000D03*
D15*
X692000000Y-273270000D03*
X685650000Y-275810000D03*
%TD*%
D13*
%TO.C,SW4*%
X734300000Y-278350000D03*
D14*
X739380000Y-278350000D03*
D13*
X744460000Y-278350000D03*
D15*
X741920000Y-273270000D03*
X735570000Y-275810000D03*
%TD*%
D16*
%TO.C,U1*%
X405765000Y-319610000D03*
X404495000Y-319610000D03*
X403225000Y-319610000D03*
X401955000Y-319610000D03*
X400685000Y-319610000D03*
X399415000Y-319610000D03*
X398145000Y-319610000D03*
X396875000Y-319610000D03*
X395605000Y-319610000D03*
X394335000Y-319610000D03*
X393065000Y-319610000D03*
X391795000Y-319610000D03*
X391795000Y-310310000D03*
X393065000Y-310310000D03*
X394335000Y-310310000D03*
X395605000Y-310310000D03*
X396875000Y-310310000D03*
X398145000Y-310310000D03*
X399415000Y-310310000D03*
X400685000Y-310310000D03*
X401955000Y-310310000D03*
X403225000Y-310310000D03*
X404495000Y-310310000D03*
X405765000Y-310310000D03*
%TD*%
D15*
%TO.C,A1*%
X395155000Y-199520000D03*
D17*
X394855000Y-202550000D03*
X390005000Y-202550000D03*
D15*
X389705000Y-199520000D03*
D18*
X402120000Y-199390000D03*
D19*
X401320000Y-199390000D03*
D20*
X402120000Y-201930000D03*
D21*
X401320000Y-201930000D03*
D22*
X402120000Y-204470000D03*
D23*
X401320000Y-204470000D03*
D20*
X402120000Y-207010000D03*
D21*
X401320000Y-207010000D03*
D20*
X402120000Y-209550000D03*
D21*
X401320000Y-209550000D03*
D20*
X402120000Y-212090000D03*
D21*
X401320000Y-212090000D03*
D20*
X402120000Y-214630000D03*
D21*
X401320000Y-214630000D03*
D22*
X402120000Y-217170000D03*
D23*
X401320000Y-217170000D03*
D20*
X402120000Y-219710000D03*
D21*
X401320000Y-219710000D03*
D20*
X402120000Y-222250000D03*
D21*
X401320000Y-222250000D03*
D20*
X402120000Y-224790000D03*
D21*
X401320000Y-224790000D03*
D20*
X402120000Y-227330000D03*
D21*
X401320000Y-227330000D03*
D22*
X402120000Y-229870000D03*
D23*
X401320000Y-229870000D03*
D20*
X402120000Y-232410000D03*
D21*
X401320000Y-232410000D03*
D20*
X402120000Y-234950000D03*
D21*
X401320000Y-234950000D03*
D20*
X402120000Y-237490000D03*
D21*
X401320000Y-237490000D03*
D20*
X402120000Y-240030000D03*
D21*
X401320000Y-240030000D03*
D22*
X402120000Y-242570000D03*
D23*
X401320000Y-242570000D03*
D20*
X402120000Y-245110000D03*
D21*
X401320000Y-245110000D03*
D20*
X402120000Y-247650000D03*
D21*
X401320000Y-247650000D03*
X383540000Y-247650000D03*
D20*
X382740000Y-247650000D03*
D21*
X383540000Y-245110000D03*
D20*
X382740000Y-245110000D03*
D24*
X383540000Y-242570000D03*
D18*
X382740000Y-242570000D03*
D21*
X383540000Y-240030000D03*
D20*
X382740000Y-240030000D03*
D21*
X383540000Y-237490000D03*
D20*
X382740000Y-237490000D03*
D21*
X383540000Y-234950000D03*
D20*
X382740000Y-234950000D03*
D21*
X383540000Y-232410000D03*
D20*
X382740000Y-232410000D03*
D24*
X383540000Y-229870000D03*
D18*
X382740000Y-229870000D03*
D21*
X383540000Y-227330000D03*
D20*
X382740000Y-227330000D03*
D21*
X383540000Y-224790000D03*
D20*
X382740000Y-224790000D03*
D21*
X383540000Y-222250000D03*
D20*
X382740000Y-222250000D03*
D21*
X383540000Y-219710000D03*
D20*
X382740000Y-219710000D03*
D24*
X383540000Y-217170000D03*
D18*
X382740000Y-217170000D03*
D21*
X383540000Y-214630000D03*
D20*
X382740000Y-214630000D03*
D21*
X383540000Y-212090000D03*
D20*
X382740000Y-212090000D03*
D21*
X383540000Y-209550000D03*
D20*
X382740000Y-209550000D03*
D21*
X383540000Y-207010000D03*
D20*
X382740000Y-207010000D03*
D24*
X383540000Y-204470000D03*
D18*
X382740000Y-204470000D03*
D21*
X383540000Y-201930000D03*
D20*
X382740000Y-201930000D03*
D21*
X383540000Y-199390000D03*
D20*
X382740000Y-199390000D03*
%TD*%
M02*
