%TF.GenerationSoftware,KiCad,Pcbnew,9.0.1*%
%TF.CreationDate,2025-07-07T17:58:15-06:00*%
%TF.ProjectId,MixDeck v1,4d697844-6563-46b2-9076-312e6b696361,rev?*%
%TF.SameCoordinates,Original*%
%TF.FileFunction,Copper,L1,Top*%
%TF.FilePolarity,Positive*%
%FSLAX46Y46*%
G04 Gerber Fmt 4.6, Leading zero omitted, Abs format (unit mm)*
G04 Created by KiCad (PCBNEW 9.0.1) date 2025-07-07 17:58:15*
%MOMM*%
%LPD*%
G01*
G04 APERTURE LIST*
G04 Aperture macros list*
%AMRoundRect*
0 Rectangle with rounded corners*
0 $1 Rounding radius*
0 $2 $3 $4 $5 $6 $7 $8 $9 X,Y pos of 4 corners*
0 Add a 4 corners polygon primitive as box body*
4,1,4,$2,$3,$4,$5,$6,$7,$8,$9,$2,$3,0*
0 Add four circle primitives for the rounded corners*
1,1,$1+$1,$2,$3*
1,1,$1+$1,$4,$5*
1,1,$1+$1,$6,$7*
1,1,$1+$1,$8,$9*
0 Add four rect primitives between the rounded corners*
20,1,$1+$1,$2,$3,$4,$5,0*
20,1,$1+$1,$4,$5,$6,$7,0*
20,1,$1+$1,$6,$7,$8,$9,0*
20,1,$1+$1,$8,$9,$2,$3,0*%
%AMFreePoly0*
4,1,37,0.603843,0.796157,0.639018,0.796157,0.711114,0.766294,0.766294,0.711114,0.796157,0.639018,0.796157,0.603843,0.800000,0.600000,0.800000,-0.600000,0.796157,-0.603843,0.796157,-0.639018,0.766294,-0.711114,0.711114,-0.766294,0.639018,-0.796157,0.603843,-0.796157,0.600000,-0.800000,0.000000,-0.800000,0.000000,-0.796148,-0.078414,-0.796148,-0.232228,-0.765552,-0.377117,-0.705537,
-0.507515,-0.618408,-0.618408,-0.507515,-0.705537,-0.377117,-0.765552,-0.232228,-0.796148,-0.078414,-0.796148,0.078414,-0.765552,0.232228,-0.705537,0.377117,-0.618408,0.507515,-0.507515,0.618408,-0.377117,0.705537,-0.232228,0.765552,-0.078414,0.796148,0.000000,0.796148,0.000000,0.800000,0.600000,0.800000,0.603843,0.796157,0.603843,0.796157,$1*%
%AMFreePoly1*
4,1,37,0.000000,0.796148,0.078414,0.796148,0.232228,0.765552,0.377117,0.705537,0.507515,0.618408,0.618408,0.507515,0.705537,0.377117,0.765552,0.232228,0.796148,0.078414,0.796148,-0.078414,0.765552,-0.232228,0.705537,-0.377117,0.618408,-0.507515,0.507515,-0.618408,0.377117,-0.705537,0.232228,-0.765552,0.078414,-0.796148,0.000000,-0.796148,0.000000,-0.800000,-0.600000,-0.800000,
-0.603843,-0.796157,-0.639018,-0.796157,-0.711114,-0.766294,-0.766294,-0.711114,-0.796157,-0.639018,-0.796157,-0.603843,-0.800000,-0.600000,-0.800000,0.600000,-0.796157,0.603843,-0.796157,0.639018,-0.766294,0.711114,-0.711114,0.766294,-0.639018,0.796157,-0.603843,0.796157,-0.600000,0.800000,0.000000,0.800000,0.000000,0.796148,0.000000,0.796148,$1*%
G04 Aperture macros list end*
%TA.AperFunction,ComponentPad*%
%ADD10R,2.250000X2.250000*%
%TD*%
%TA.AperFunction,ComponentPad*%
%ADD11C,2.250000*%
%TD*%
%TA.AperFunction,ComponentPad*%
%ADD12C,3.000000*%
%TD*%
%TA.AperFunction,ComponentPad*%
%ADD13C,2.200000*%
%TD*%
%TA.AperFunction,ComponentPad*%
%ADD14RoundRect,0.200000X0.600000X0.600000X-0.600000X0.600000X-0.600000X-0.600000X0.600000X-0.600000X0*%
%TD*%
%TA.AperFunction,ComponentPad*%
%ADD15C,1.600000*%
%TD*%
%TA.AperFunction,ComponentPad*%
%ADD16FreePoly0,180.000000*%
%TD*%
%TA.AperFunction,ComponentPad*%
%ADD17FreePoly1,180.000000*%
%TD*%
%TA.AperFunction,ViaPad*%
%ADD18C,0.600000*%
%TD*%
%TA.AperFunction,Conductor*%
%ADD19C,0.200000*%
%TD*%
G04 APERTURE END LIST*
D10*
%TO.P,RV7,1,1*%
%TO.N,REFV*%
X542914936Y-220730000D03*
D11*
%TO.P,RV7,2,2*%
%TO.N,Net-(U1-I6)*%
X546714936Y-220730000D03*
%TO.P,RV7,3,3*%
%TO.N,GND*%
X542914936Y-348230000D03*
D12*
%TO.P,RV7,MH1*%
%TO.N,N/C*%
X541964936Y-240780000D03*
%TO.P,RV7,MH2*%
X541964936Y-323280000D03*
%TD*%
D10*
%TO.P,RV2,1,1*%
%TO.N,REFV*%
X441299873Y-220730000D03*
D11*
%TO.P,RV2,2,2*%
%TO.N,Net-(U1-I1)*%
X445099873Y-220730000D03*
%TO.P,RV2,3,3*%
%TO.N,GND*%
X441299873Y-348230000D03*
D12*
%TO.P,RV2,MH1*%
%TO.N,N/C*%
X440349873Y-240780000D03*
%TO.P,RV2,MH2*%
X440349873Y-323280000D03*
%TD*%
D10*
%TO.P,RV10,1,1*%
%TO.N,REFV*%
X603883975Y-220730000D03*
D11*
%TO.P,RV10,2,2*%
%TO.N,Net-(U1-I9)*%
X607683975Y-220730000D03*
%TO.P,RV10,3,3*%
%TO.N,GND*%
X603883975Y-348230000D03*
D12*
%TO.P,RV10,MH1*%
%TO.N,N/C*%
X602933975Y-240780000D03*
%TO.P,RV10,MH2*%
X602933975Y-323280000D03*
%TD*%
D13*
%TO.P,SW2,1,1*%
%TO.N,GND*%
X741920000Y-211350000D03*
%TO.P,SW2,2,2*%
%TO.N,Bttn2*%
X735570000Y-213890000D03*
%TD*%
%TO.P,SW6,1,1*%
%TO.N,GND*%
X741920000Y-335190000D03*
%TO.P,SW6,2,2*%
%TO.N,Bttn6*%
X735570000Y-337730000D03*
%TD*%
D10*
%TO.P,RV9,1,1*%
%TO.N,REFV*%
X583560962Y-220730000D03*
D11*
%TO.P,RV9,2,2*%
%TO.N,Net-(U1-I8)*%
X587360962Y-220730000D03*
%TO.P,RV9,3,3*%
%TO.N,GND*%
X583560962Y-348230000D03*
D12*
%TO.P,RV9,MH1*%
%TO.N,N/C*%
X582610962Y-240780000D03*
%TO.P,RV9,MH2*%
X582610962Y-323280000D03*
%TD*%
D10*
%TO.P,RV1,1,1*%
%TO.N,REFV*%
X420976860Y-220730000D03*
D11*
%TO.P,RV1,2,2*%
%TO.N,Net-(U1-I0)*%
X424776860Y-220730000D03*
%TO.P,RV1,3,3*%
%TO.N,GND*%
X420976860Y-348230000D03*
D12*
%TO.P,RV1,MH1*%
%TO.N,N/C*%
X420026860Y-240780000D03*
%TO.P,RV1,MH2*%
X420026860Y-323280000D03*
%TD*%
D10*
%TO.P,RV8,1,1*%
%TO.N,REFV*%
X563237949Y-220730000D03*
D11*
%TO.P,RV8,2,2*%
%TO.N,Net-(U1-I7)*%
X567037949Y-220730000D03*
%TO.P,RV8,3,3*%
%TO.N,GND*%
X563237949Y-348230000D03*
D12*
%TO.P,RV8,MH1*%
%TO.N,N/C*%
X562287949Y-240780000D03*
%TO.P,RV8,MH2*%
X562287949Y-323280000D03*
%TD*%
D10*
%TO.P,RV6,1,1*%
%TO.N,REFV*%
X522591924Y-220730000D03*
D11*
%TO.P,RV6,2,2*%
%TO.N,Net-(U1-I5)*%
X526391924Y-220730000D03*
%TO.P,RV6,3,3*%
%TO.N,GND*%
X522591924Y-348230000D03*
D12*
%TO.P,RV6,MH1*%
%TO.N,N/C*%
X521641924Y-240780000D03*
%TO.P,RV6,MH2*%
X521641924Y-323280000D03*
%TD*%
D10*
%TO.P,RV12,1,1*%
%TO.N,REFV*%
X644530000Y-220730000D03*
D11*
%TO.P,RV12,2,2*%
%TO.N,Net-(U1-I11)*%
X648330000Y-220730000D03*
%TO.P,RV12,3,3*%
%TO.N,GND*%
X644530000Y-348230000D03*
D12*
%TO.P,RV12,MH1*%
%TO.N,N/C*%
X643580000Y-240780000D03*
%TO.P,RV12,MH2*%
X643580000Y-323280000D03*
%TD*%
D13*
%TO.P,SW5,1,1*%
%TO.N,GND*%
X692000000Y-335190000D03*
%TO.P,SW5,2,2*%
%TO.N,Bttn5*%
X685650000Y-337730000D03*
%TD*%
D10*
%TO.P,RV5,1,1*%
%TO.N,REFV*%
X502268911Y-220730000D03*
D11*
%TO.P,RV5,2,2*%
%TO.N,Net-(U1-I4)*%
X506068911Y-220730000D03*
%TO.P,RV5,3,3*%
%TO.N,GND*%
X502268911Y-348230000D03*
D12*
%TO.P,RV5,MH1*%
%TO.N,N/C*%
X501318911Y-240780000D03*
%TO.P,RV5,MH2*%
X501318911Y-323280000D03*
%TD*%
D13*
%TO.P,SW1,1,1*%
%TO.N,GND*%
X692000000Y-211350000D03*
%TO.P,SW1,2,2*%
%TO.N,Bttn1*%
X685650000Y-213890000D03*
%TD*%
D10*
%TO.P,RV4,1,1*%
%TO.N,REFV*%
X481945898Y-220730000D03*
D11*
%TO.P,RV4,2,2*%
%TO.N,Net-(U1-I3)*%
X485745898Y-220730000D03*
%TO.P,RV4,3,3*%
%TO.N,GND*%
X481945898Y-348230000D03*
D12*
%TO.P,RV4,MH1*%
%TO.N,N/C*%
X480995898Y-240780000D03*
%TO.P,RV4,MH2*%
X480995898Y-323280000D03*
%TD*%
D10*
%TO.P,RV3,1,1*%
%TO.N,REFV*%
X461622885Y-220730000D03*
D11*
%TO.P,RV3,2,2*%
%TO.N,Net-(U1-I2)*%
X465422885Y-220730000D03*
%TO.P,RV3,3,3*%
%TO.N,GND*%
X461622885Y-348230000D03*
D12*
%TO.P,RV3,MH1*%
%TO.N,N/C*%
X460672885Y-240780000D03*
%TO.P,RV3,MH2*%
X460672885Y-323280000D03*
%TD*%
D10*
%TO.P,RV11,1,1*%
%TO.N,REFV*%
X624206987Y-220730000D03*
D11*
%TO.P,RV11,2,2*%
%TO.N,Net-(U1-I10)*%
X628006987Y-220730000D03*
%TO.P,RV11,3,3*%
%TO.N,GND*%
X624206987Y-348230000D03*
D12*
%TO.P,RV11,MH1*%
%TO.N,N/C*%
X623256987Y-240780000D03*
%TO.P,RV11,MH2*%
X623256987Y-323280000D03*
%TD*%
D13*
%TO.P,SW3,1,1*%
%TO.N,GND*%
X692000000Y-273270000D03*
%TO.P,SW3,2,2*%
%TO.N,Bttn4*%
X685650000Y-275810000D03*
%TD*%
%TO.P,SW4,1,1*%
%TO.N,GND*%
X741920000Y-273270000D03*
%TO.P,SW4,2,2*%
%TO.N,Bttn3*%
X735570000Y-275810000D03*
%TD*%
D14*
%TO.P,A1,1,GPIO0*%
%TO.N,unconnected-(A1-GPIO0-Pad1)*%
X401320000Y-199390000D03*
D15*
%TO.P,A1,2,GPIO1*%
%TO.N,unconnected-(A1-GPIO1-Pad2)*%
X401320000Y-201930000D03*
D16*
%TO.P,A1,3,GND*%
%TO.N,GND*%
X401320000Y-204470000D03*
D15*
%TO.P,A1,4,GPIO2*%
%TO.N,S0*%
X401320000Y-207010000D03*
%TO.P,A1,5,GPIO3*%
%TO.N,S1*%
X401320000Y-209550000D03*
%TO.P,A1,6,GPIO4*%
%TO.N,S2*%
X401320000Y-212090000D03*
%TO.P,A1,7,GPIO5*%
%TO.N,S3*%
X401320000Y-214630000D03*
D16*
%TO.P,A1,8,GND*%
%TO.N,GND*%
X401320000Y-217170000D03*
D15*
%TO.P,A1,9,GPIO6*%
%TO.N,Bttn1*%
X401320000Y-219710000D03*
%TO.P,A1,10,GPIO7*%
%TO.N,Bttn2*%
X401320000Y-222250000D03*
%TO.P,A1,11,GPIO8*%
%TO.N,Bttn3*%
X401320000Y-224790000D03*
%TO.P,A1,12,GPIO9*%
%TO.N,Bttn4*%
X401320000Y-227330000D03*
D16*
%TO.P,A1,13,GND*%
%TO.N,GND*%
X401320000Y-229870000D03*
D15*
%TO.P,A1,14,GPIO10*%
%TO.N,Bttn5*%
X401320000Y-232410000D03*
%TO.P,A1,15,GPIO11*%
%TO.N,Bttn6*%
X401320000Y-234950000D03*
%TO.P,A1,16,GPIO12*%
%TO.N,unconnected-(A1-GPIO12-Pad16)*%
X401320000Y-237490000D03*
%TO.P,A1,17,GPIO13*%
%TO.N,unconnected-(A1-GPIO13-Pad17)*%
X401320000Y-240030000D03*
D16*
%TO.P,A1,18,GND*%
%TO.N,GND*%
X401320000Y-242570000D03*
D15*
%TO.P,A1,19,GPIO14*%
%TO.N,unconnected-(A1-GPIO14-Pad19)*%
X401320000Y-245110000D03*
%TO.P,A1,20,GPIO15*%
%TO.N,unconnected-(A1-GPIO15-Pad20)*%
X401320000Y-247650000D03*
%TO.P,A1,21,GPIO16*%
%TO.N,unconnected-(A1-GPIO16-Pad21)*%
X383540000Y-247650000D03*
%TO.P,A1,22,GPIO17*%
%TO.N,unconnected-(A1-GPIO17-Pad22)*%
X383540000Y-245110000D03*
D17*
%TO.P,A1,23,GND*%
%TO.N,GND*%
X383540000Y-242570000D03*
D15*
%TO.P,A1,24,GPIO18*%
%TO.N,unconnected-(A1-GPIO18-Pad24)*%
X383540000Y-240030000D03*
%TO.P,A1,25,GPIO19*%
%TO.N,unconnected-(A1-GPIO19-Pad25)*%
X383540000Y-237490000D03*
%TO.P,A1,26,GPIO20*%
%TO.N,unconnected-(A1-GPIO20-Pad26)*%
X383540000Y-234950000D03*
%TO.P,A1,27,GPIO21*%
%TO.N,unconnected-(A1-GPIO21-Pad27)*%
X383540000Y-232410000D03*
D17*
%TO.P,A1,28,GND*%
%TO.N,GND*%
X383540000Y-229870000D03*
D15*
%TO.P,A1,29,GPIO22*%
%TO.N,unconnected-(A1-GPIO22-Pad29)*%
X383540000Y-227330000D03*
%TO.P,A1,30,RUN*%
%TO.N,unconnected-(A1-RUN-Pad30)*%
X383540000Y-224790000D03*
%TO.P,A1,31,GPIO26_ADC0*%
%TO.N,SIG*%
X383540000Y-222250000D03*
%TO.P,A1,32,GPIO27_ADC1*%
%TO.N,unconnected-(A1-GPIO27_ADC1-Pad32)*%
X383540000Y-219710000D03*
D17*
%TO.P,A1,33,AGND*%
%TO.N,GND*%
X383540000Y-217170000D03*
D15*
%TO.P,A1,34,GPIO28_ADC2*%
%TO.N,unconnected-(A1-GPIO28_ADC2-Pad34)*%
X383540000Y-214630000D03*
%TO.P,A1,35,ADC_VREF*%
%TO.N,REFV*%
X383540000Y-212090000D03*
%TO.P,A1,36,3V3*%
%TO.N,3V3*%
X383540000Y-209550000D03*
%TO.P,A1,37,3V3_EN*%
%TO.N,unconnected-(A1-3V3_EN-Pad37)*%
X383540000Y-207010000D03*
D17*
%TO.P,A1,38,GND*%
%TO.N,GND*%
X383540000Y-204470000D03*
D15*
%TO.P,A1,39,VSYS*%
%TO.N,unconnected-(A1-VSYS-Pad39)*%
X383540000Y-201930000D03*
%TO.P,A1,40,VBUS*%
%TO.N,unconnected-(A1-VBUS-Pad40)*%
X383540000Y-199390000D03*
%TD*%
D18*
%TO.N,GND*%
X394335000Y-312420000D03*
X391795000Y-321310000D03*
X391795000Y-317500000D03*
%TO.N,Bttn3*%
X407670000Y-224790000D03*
%TO.N,Bttn1*%
X407670000Y-219710000D03*
%TO.N,Bttn5*%
X407670000Y-232410000D03*
%TO.N,Bttn2*%
X407670000Y-222250000D03*
%TO.N,Bttn6*%
X407670000Y-234950000D03*
%TO.N,Bttn4*%
X407670000Y-227330000D03*
%TO.N,Net-(U1-I8)*%
X405203123Y-311690317D03*
%TO.N,Net-(U1-I9)*%
X403225000Y-311785000D03*
%TO.N,Net-(U1-I10)*%
X401955000Y-311785000D03*
%TO.N,Net-(U1-I11)*%
X400685000Y-311785000D03*
%TD*%
D19*
%TO.N,GND*%
X394335000Y-312420000D02*
X391795000Y-314960000D01*
X418715000Y-348230000D02*
X420976860Y-348230000D01*
X391795000Y-321310000D02*
X418715000Y-348230000D01*
X563237949Y-348230000D02*
X583560962Y-348230000D01*
X502268911Y-348230000D02*
X522591924Y-348230000D01*
X461622885Y-348230000D02*
X481945898Y-348230000D01*
X624206987Y-348230000D02*
X644530000Y-348230000D01*
X391795000Y-314960000D02*
X391795000Y-317500000D01*
X692000000Y-335190000D02*
X741920000Y-335190000D01*
X741920000Y-273270000D02*
X692000000Y-273270000D01*
X684824816Y-348230000D02*
X692000000Y-341054816D01*
X692000000Y-273270000D02*
X692000000Y-211350000D01*
X644530000Y-348230000D02*
X684824816Y-348230000D01*
X420976860Y-348230000D02*
X441299873Y-348230000D01*
X441299873Y-348230000D02*
X461622885Y-348230000D01*
X692000000Y-211350000D02*
X741920000Y-211350000D01*
X481945898Y-348230000D02*
X502268911Y-348230000D01*
X542914936Y-348230000D02*
X563237949Y-348230000D01*
X603883975Y-348230000D02*
X624206987Y-348230000D01*
X692000000Y-341054816D02*
X692000000Y-335190000D01*
X741920000Y-335190000D02*
X741920000Y-273270000D01*
X401320000Y-217170000D02*
X383540000Y-217170000D01*
X583560962Y-348230000D02*
X603883975Y-348230000D01*
X522591924Y-348230000D02*
X542914936Y-348230000D01*
%TO.N,Bttn3*%
X401320000Y-224790000D02*
X407670000Y-224790000D01*
%TO.N,Bttn1*%
X401320000Y-219710000D02*
X407670000Y-219710000D01*
%TO.N,Bttn5*%
X401320000Y-232410000D02*
X407670000Y-232410000D01*
%TO.N,Bttn2*%
X401320000Y-222250000D02*
X407670000Y-222250000D01*
%TO.N,Bttn6*%
X401320000Y-234950000D02*
X407670000Y-234950000D01*
%TO.N,REFV*%
X500842911Y-219304000D02*
X502268911Y-220730000D01*
X605309975Y-219304000D02*
X622780987Y-219304000D01*
X460196885Y-219304000D02*
X461622885Y-220730000D01*
X602457975Y-219304000D02*
X603883975Y-220730000D01*
X439178873Y-218609000D02*
X441299873Y-220730000D01*
X442725873Y-219304000D02*
X460196885Y-219304000D01*
X423097860Y-218609000D02*
X439178873Y-218609000D01*
X582134962Y-219304000D02*
X583560962Y-220730000D01*
X463048885Y-219304000D02*
X480519898Y-219304000D01*
X441299873Y-220730000D02*
X442725873Y-219304000D01*
X384641000Y-213191000D02*
X413437860Y-213191000D01*
X561582949Y-219075000D02*
X563237949Y-220730000D01*
X483371898Y-219304000D02*
X500842911Y-219304000D01*
X583560962Y-220730000D02*
X584986962Y-219304000D01*
X603883975Y-220730000D02*
X605309975Y-219304000D01*
X625632987Y-219304000D02*
X643104000Y-219304000D01*
X481945898Y-220730000D02*
X483371898Y-219304000D01*
X480519898Y-219304000D02*
X481945898Y-220730000D01*
X503694911Y-219304000D02*
X521165924Y-219304000D01*
X502268911Y-220730000D02*
X503694911Y-219304000D01*
X521165924Y-219304000D02*
X522591924Y-220730000D01*
X624206987Y-220730000D02*
X625632987Y-219304000D01*
X622780987Y-219304000D02*
X624206987Y-220730000D01*
X383540000Y-212090000D02*
X384641000Y-213191000D01*
X541488936Y-219304000D02*
X542914936Y-220730000D01*
X584986962Y-219304000D02*
X602457975Y-219304000D01*
X563237949Y-220730000D02*
X564663949Y-219304000D01*
X542914936Y-220730000D02*
X544569936Y-219075000D01*
X643104000Y-219304000D02*
X644530000Y-220730000D01*
X522591924Y-220730000D02*
X524017924Y-219304000D01*
X420976860Y-220730000D02*
X423097860Y-218609000D01*
X461622885Y-220730000D02*
X463048885Y-219304000D01*
X564663949Y-219304000D02*
X582134962Y-219304000D01*
X544569936Y-219075000D02*
X561582949Y-219075000D01*
X524017924Y-219304000D02*
X541488936Y-219304000D01*
X413437860Y-213191000D02*
X420976860Y-220730000D01*
%TO.N,Bttn4*%
X401320000Y-227330000D02*
X407670000Y-227330000D01*
%TO.N,Net-(U1-I8)*%
X496071962Y-312019000D02*
X587360962Y-220730000D01*
X405670317Y-311690317D02*
X405999000Y-312019000D01*
X405999000Y-312019000D02*
X496071962Y-312019000D01*
X405203123Y-311690317D02*
X405670317Y-311690317D01*
%TO.N,Net-(U1-I9)*%
X403860000Y-312420000D02*
X515993975Y-312420000D01*
X515993975Y-312420000D02*
X607683975Y-220730000D01*
X403225000Y-311785000D02*
X403860000Y-312420000D01*
%TO.N,Net-(U1-I10)*%
X401955000Y-311785000D02*
X402991000Y-312821000D01*
X402991000Y-312821000D02*
X535915987Y-312821000D01*
X535915987Y-312821000D02*
X628006987Y-220730000D01*
%TO.N,Net-(U1-I11)*%
X555838000Y-313222000D02*
X648330000Y-220730000D01*
X402122000Y-313222000D02*
X555838000Y-313222000D01*
X400685000Y-311785000D02*
X402122000Y-313222000D01*
%TD*%
M02*
