%TF.GenerationSoftware,KiCad,Pcbnew,9.0.1*%
%TF.CreationDate,2025-07-07T17:58:15-06:00*%
%TF.ProjectId,MixDeck v1,4d697844-6563-46b2-9076-312e6b696361,rev?*%
%TF.SameCoordinates,Original*%
%TF.FileFunction,Legend,Top*%
%TF.FilePolarity,Positive*%
%FSLAX46Y46*%
G04 Gerber Fmt 4.6, Leading zero omitted, Abs format (unit mm)*
G04 Created by KiCad (PCBNEW 9.0.1) date 2025-07-07 17:58:15*
%MOMM*%
%LPD*%
G01*
G04 APERTURE LIST*
%ADD10C,0.254000*%
%ADD11C,0.150000*%
%ADD12C,0.200000*%
%ADD13C,0.100000*%
%ADD14C,0.120000*%
G04 APERTURE END LIST*
D10*
X542539254Y-285235951D02*
X541934492Y-285659285D01*
X542539254Y-285961666D02*
X541269254Y-285961666D01*
X541269254Y-285961666D02*
X541269254Y-285477856D01*
X541269254Y-285477856D02*
X541329730Y-285356904D01*
X541329730Y-285356904D02*
X541390206Y-285296427D01*
X541390206Y-285296427D02*
X541511158Y-285235951D01*
X541511158Y-285235951D02*
X541692587Y-285235951D01*
X541692587Y-285235951D02*
X541813539Y-285296427D01*
X541813539Y-285296427D02*
X541874016Y-285356904D01*
X541874016Y-285356904D02*
X541934492Y-285477856D01*
X541934492Y-285477856D02*
X541934492Y-285961666D01*
X541269254Y-284873094D02*
X542539254Y-284449761D01*
X542539254Y-284449761D02*
X541269254Y-284026427D01*
X541269254Y-283724047D02*
X541269254Y-282877380D01*
X541269254Y-282877380D02*
X542539254Y-283421666D01*
X440924191Y-285235951D02*
X440319429Y-285659285D01*
X440924191Y-285961666D02*
X439654191Y-285961666D01*
X439654191Y-285961666D02*
X439654191Y-285477856D01*
X439654191Y-285477856D02*
X439714667Y-285356904D01*
X439714667Y-285356904D02*
X439775143Y-285296427D01*
X439775143Y-285296427D02*
X439896095Y-285235951D01*
X439896095Y-285235951D02*
X440077524Y-285235951D01*
X440077524Y-285235951D02*
X440198476Y-285296427D01*
X440198476Y-285296427D02*
X440258953Y-285356904D01*
X440258953Y-285356904D02*
X440319429Y-285477856D01*
X440319429Y-285477856D02*
X440319429Y-285961666D01*
X439654191Y-284873094D02*
X440924191Y-284449761D01*
X440924191Y-284449761D02*
X439654191Y-284026427D01*
X439775143Y-283663571D02*
X439714667Y-283603095D01*
X439714667Y-283603095D02*
X439654191Y-283482142D01*
X439654191Y-283482142D02*
X439654191Y-283179761D01*
X439654191Y-283179761D02*
X439714667Y-283058809D01*
X439714667Y-283058809D02*
X439775143Y-282998333D01*
X439775143Y-282998333D02*
X439896095Y-282937856D01*
X439896095Y-282937856D02*
X440017048Y-282937856D01*
X440017048Y-282937856D02*
X440198476Y-282998333D01*
X440198476Y-282998333D02*
X440924191Y-283724047D01*
X440924191Y-283724047D02*
X440924191Y-282937856D01*
X603508293Y-285840713D02*
X602903531Y-286264047D01*
X603508293Y-286566428D02*
X602238293Y-286566428D01*
X602238293Y-286566428D02*
X602238293Y-286082618D01*
X602238293Y-286082618D02*
X602298769Y-285961666D01*
X602298769Y-285961666D02*
X602359245Y-285901189D01*
X602359245Y-285901189D02*
X602480197Y-285840713D01*
X602480197Y-285840713D02*
X602661626Y-285840713D01*
X602661626Y-285840713D02*
X602782578Y-285901189D01*
X602782578Y-285901189D02*
X602843055Y-285961666D01*
X602843055Y-285961666D02*
X602903531Y-286082618D01*
X602903531Y-286082618D02*
X602903531Y-286566428D01*
X602238293Y-285477856D02*
X603508293Y-285054523D01*
X603508293Y-285054523D02*
X602238293Y-284631189D01*
X603508293Y-283542618D02*
X603508293Y-284268333D01*
X603508293Y-283905476D02*
X602238293Y-283905476D01*
X602238293Y-283905476D02*
X602419721Y-284026428D01*
X602419721Y-284026428D02*
X602540674Y-284147380D01*
X602540674Y-284147380D02*
X602601150Y-284268333D01*
X602238293Y-282756428D02*
X602238293Y-282635475D01*
X602238293Y-282635475D02*
X602298769Y-282514523D01*
X602298769Y-282514523D02*
X602359245Y-282454047D01*
X602359245Y-282454047D02*
X602480197Y-282393571D01*
X602480197Y-282393571D02*
X602722102Y-282333094D01*
X602722102Y-282333094D02*
X603024483Y-282333094D01*
X603024483Y-282333094D02*
X603266388Y-282393571D01*
X603266388Y-282393571D02*
X603387340Y-282454047D01*
X603387340Y-282454047D02*
X603447817Y-282514523D01*
X603447817Y-282514523D02*
X603508293Y-282635475D01*
X603508293Y-282635475D02*
X603508293Y-282756428D01*
X603508293Y-282756428D02*
X603447817Y-282877380D01*
X603447817Y-282877380D02*
X603387340Y-282937856D01*
X603387340Y-282937856D02*
X603266388Y-282998333D01*
X603266388Y-282998333D02*
X603024483Y-283058809D01*
X603024483Y-283058809D02*
X602722102Y-283058809D01*
X602722102Y-283058809D02*
X602480197Y-282998333D01*
X602480197Y-282998333D02*
X602359245Y-282937856D01*
X602359245Y-282937856D02*
X602298769Y-282877380D01*
X602298769Y-282877380D02*
X602238293Y-282756428D01*
D11*
X738046667Y-208963200D02*
X738189524Y-209010819D01*
X738189524Y-209010819D02*
X738427619Y-209010819D01*
X738427619Y-209010819D02*
X738522857Y-208963200D01*
X738522857Y-208963200D02*
X738570476Y-208915580D01*
X738570476Y-208915580D02*
X738618095Y-208820342D01*
X738618095Y-208820342D02*
X738618095Y-208725104D01*
X738618095Y-208725104D02*
X738570476Y-208629866D01*
X738570476Y-208629866D02*
X738522857Y-208582247D01*
X738522857Y-208582247D02*
X738427619Y-208534628D01*
X738427619Y-208534628D02*
X738237143Y-208487009D01*
X738237143Y-208487009D02*
X738141905Y-208439390D01*
X738141905Y-208439390D02*
X738094286Y-208391771D01*
X738094286Y-208391771D02*
X738046667Y-208296533D01*
X738046667Y-208296533D02*
X738046667Y-208201295D01*
X738046667Y-208201295D02*
X738094286Y-208106057D01*
X738094286Y-208106057D02*
X738141905Y-208058438D01*
X738141905Y-208058438D02*
X738237143Y-208010819D01*
X738237143Y-208010819D02*
X738475238Y-208010819D01*
X738475238Y-208010819D02*
X738618095Y-208058438D01*
X738951429Y-208010819D02*
X739189524Y-209010819D01*
X739189524Y-209010819D02*
X739380000Y-208296533D01*
X739380000Y-208296533D02*
X739570476Y-209010819D01*
X739570476Y-209010819D02*
X739808572Y-208010819D01*
X740141905Y-208106057D02*
X740189524Y-208058438D01*
X740189524Y-208058438D02*
X740284762Y-208010819D01*
X740284762Y-208010819D02*
X740522857Y-208010819D01*
X740522857Y-208010819D02*
X740618095Y-208058438D01*
X740618095Y-208058438D02*
X740665714Y-208106057D01*
X740665714Y-208106057D02*
X740713333Y-208201295D01*
X740713333Y-208201295D02*
X740713333Y-208296533D01*
X740713333Y-208296533D02*
X740665714Y-208439390D01*
X740665714Y-208439390D02*
X740094286Y-209010819D01*
X740094286Y-209010819D02*
X740713333Y-209010819D01*
X738046667Y-332803200D02*
X738189524Y-332850819D01*
X738189524Y-332850819D02*
X738427619Y-332850819D01*
X738427619Y-332850819D02*
X738522857Y-332803200D01*
X738522857Y-332803200D02*
X738570476Y-332755580D01*
X738570476Y-332755580D02*
X738618095Y-332660342D01*
X738618095Y-332660342D02*
X738618095Y-332565104D01*
X738618095Y-332565104D02*
X738570476Y-332469866D01*
X738570476Y-332469866D02*
X738522857Y-332422247D01*
X738522857Y-332422247D02*
X738427619Y-332374628D01*
X738427619Y-332374628D02*
X738237143Y-332327009D01*
X738237143Y-332327009D02*
X738141905Y-332279390D01*
X738141905Y-332279390D02*
X738094286Y-332231771D01*
X738094286Y-332231771D02*
X738046667Y-332136533D01*
X738046667Y-332136533D02*
X738046667Y-332041295D01*
X738046667Y-332041295D02*
X738094286Y-331946057D01*
X738094286Y-331946057D02*
X738141905Y-331898438D01*
X738141905Y-331898438D02*
X738237143Y-331850819D01*
X738237143Y-331850819D02*
X738475238Y-331850819D01*
X738475238Y-331850819D02*
X738618095Y-331898438D01*
X738951429Y-331850819D02*
X739189524Y-332850819D01*
X739189524Y-332850819D02*
X739380000Y-332136533D01*
X739380000Y-332136533D02*
X739570476Y-332850819D01*
X739570476Y-332850819D02*
X739808572Y-331850819D01*
X740618095Y-331850819D02*
X740427619Y-331850819D01*
X740427619Y-331850819D02*
X740332381Y-331898438D01*
X740332381Y-331898438D02*
X740284762Y-331946057D01*
X740284762Y-331946057D02*
X740189524Y-332088914D01*
X740189524Y-332088914D02*
X740141905Y-332279390D01*
X740141905Y-332279390D02*
X740141905Y-332660342D01*
X740141905Y-332660342D02*
X740189524Y-332755580D01*
X740189524Y-332755580D02*
X740237143Y-332803200D01*
X740237143Y-332803200D02*
X740332381Y-332850819D01*
X740332381Y-332850819D02*
X740522857Y-332850819D01*
X740522857Y-332850819D02*
X740618095Y-332803200D01*
X740618095Y-332803200D02*
X740665714Y-332755580D01*
X740665714Y-332755580D02*
X740713333Y-332660342D01*
X740713333Y-332660342D02*
X740713333Y-332422247D01*
X740713333Y-332422247D02*
X740665714Y-332327009D01*
X740665714Y-332327009D02*
X740618095Y-332279390D01*
X740618095Y-332279390D02*
X740522857Y-332231771D01*
X740522857Y-332231771D02*
X740332381Y-332231771D01*
X740332381Y-332231771D02*
X740237143Y-332279390D01*
X740237143Y-332279390D02*
X740189524Y-332327009D01*
X740189524Y-332327009D02*
X740141905Y-332422247D01*
D10*
X583185280Y-285235951D02*
X582580518Y-285659285D01*
X583185280Y-285961666D02*
X581915280Y-285961666D01*
X581915280Y-285961666D02*
X581915280Y-285477856D01*
X581915280Y-285477856D02*
X581975756Y-285356904D01*
X581975756Y-285356904D02*
X582036232Y-285296427D01*
X582036232Y-285296427D02*
X582157184Y-285235951D01*
X582157184Y-285235951D02*
X582338613Y-285235951D01*
X582338613Y-285235951D02*
X582459565Y-285296427D01*
X582459565Y-285296427D02*
X582520042Y-285356904D01*
X582520042Y-285356904D02*
X582580518Y-285477856D01*
X582580518Y-285477856D02*
X582580518Y-285961666D01*
X581915280Y-284873094D02*
X583185280Y-284449761D01*
X583185280Y-284449761D02*
X581915280Y-284026427D01*
X583185280Y-283542618D02*
X583185280Y-283300714D01*
X583185280Y-283300714D02*
X583124804Y-283179761D01*
X583124804Y-283179761D02*
X583064327Y-283119285D01*
X583064327Y-283119285D02*
X582882899Y-282998333D01*
X582882899Y-282998333D02*
X582640994Y-282937856D01*
X582640994Y-282937856D02*
X582157184Y-282937856D01*
X582157184Y-282937856D02*
X582036232Y-282998333D01*
X582036232Y-282998333D02*
X581975756Y-283058809D01*
X581975756Y-283058809D02*
X581915280Y-283179761D01*
X581915280Y-283179761D02*
X581915280Y-283421666D01*
X581915280Y-283421666D02*
X581975756Y-283542618D01*
X581975756Y-283542618D02*
X582036232Y-283603095D01*
X582036232Y-283603095D02*
X582157184Y-283663571D01*
X582157184Y-283663571D02*
X582459565Y-283663571D01*
X582459565Y-283663571D02*
X582580518Y-283603095D01*
X582580518Y-283603095D02*
X582640994Y-283542618D01*
X582640994Y-283542618D02*
X582701470Y-283421666D01*
X582701470Y-283421666D02*
X582701470Y-283179761D01*
X582701470Y-283179761D02*
X582640994Y-283058809D01*
X582640994Y-283058809D02*
X582580518Y-282998333D01*
X582580518Y-282998333D02*
X582459565Y-282937856D01*
X420601178Y-285235951D02*
X419996416Y-285659285D01*
X420601178Y-285961666D02*
X419331178Y-285961666D01*
X419331178Y-285961666D02*
X419331178Y-285477856D01*
X419331178Y-285477856D02*
X419391654Y-285356904D01*
X419391654Y-285356904D02*
X419452130Y-285296427D01*
X419452130Y-285296427D02*
X419573082Y-285235951D01*
X419573082Y-285235951D02*
X419754511Y-285235951D01*
X419754511Y-285235951D02*
X419875463Y-285296427D01*
X419875463Y-285296427D02*
X419935940Y-285356904D01*
X419935940Y-285356904D02*
X419996416Y-285477856D01*
X419996416Y-285477856D02*
X419996416Y-285961666D01*
X419331178Y-284873094D02*
X420601178Y-284449761D01*
X420601178Y-284449761D02*
X419331178Y-284026427D01*
X420601178Y-282937856D02*
X420601178Y-283663571D01*
X420601178Y-283300714D02*
X419331178Y-283300714D01*
X419331178Y-283300714D02*
X419512606Y-283421666D01*
X419512606Y-283421666D02*
X419633559Y-283542618D01*
X419633559Y-283542618D02*
X419694035Y-283663571D01*
X562862267Y-285235951D02*
X562257505Y-285659285D01*
X562862267Y-285961666D02*
X561592267Y-285961666D01*
X561592267Y-285961666D02*
X561592267Y-285477856D01*
X561592267Y-285477856D02*
X561652743Y-285356904D01*
X561652743Y-285356904D02*
X561713219Y-285296427D01*
X561713219Y-285296427D02*
X561834171Y-285235951D01*
X561834171Y-285235951D02*
X562015600Y-285235951D01*
X562015600Y-285235951D02*
X562136552Y-285296427D01*
X562136552Y-285296427D02*
X562197029Y-285356904D01*
X562197029Y-285356904D02*
X562257505Y-285477856D01*
X562257505Y-285477856D02*
X562257505Y-285961666D01*
X561592267Y-284873094D02*
X562862267Y-284449761D01*
X562862267Y-284449761D02*
X561592267Y-284026427D01*
X562136552Y-283421666D02*
X562076076Y-283542618D01*
X562076076Y-283542618D02*
X562015600Y-283603095D01*
X562015600Y-283603095D02*
X561894648Y-283663571D01*
X561894648Y-283663571D02*
X561834171Y-283663571D01*
X561834171Y-283663571D02*
X561713219Y-283603095D01*
X561713219Y-283603095D02*
X561652743Y-283542618D01*
X561652743Y-283542618D02*
X561592267Y-283421666D01*
X561592267Y-283421666D02*
X561592267Y-283179761D01*
X561592267Y-283179761D02*
X561652743Y-283058809D01*
X561652743Y-283058809D02*
X561713219Y-282998333D01*
X561713219Y-282998333D02*
X561834171Y-282937856D01*
X561834171Y-282937856D02*
X561894648Y-282937856D01*
X561894648Y-282937856D02*
X562015600Y-282998333D01*
X562015600Y-282998333D02*
X562076076Y-283058809D01*
X562076076Y-283058809D02*
X562136552Y-283179761D01*
X562136552Y-283179761D02*
X562136552Y-283421666D01*
X562136552Y-283421666D02*
X562197029Y-283542618D01*
X562197029Y-283542618D02*
X562257505Y-283603095D01*
X562257505Y-283603095D02*
X562378457Y-283663571D01*
X562378457Y-283663571D02*
X562620362Y-283663571D01*
X562620362Y-283663571D02*
X562741314Y-283603095D01*
X562741314Y-283603095D02*
X562801791Y-283542618D01*
X562801791Y-283542618D02*
X562862267Y-283421666D01*
X562862267Y-283421666D02*
X562862267Y-283179761D01*
X562862267Y-283179761D02*
X562801791Y-283058809D01*
X562801791Y-283058809D02*
X562741314Y-282998333D01*
X562741314Y-282998333D02*
X562620362Y-282937856D01*
X562620362Y-282937856D02*
X562378457Y-282937856D01*
X562378457Y-282937856D02*
X562257505Y-282998333D01*
X562257505Y-282998333D02*
X562197029Y-283058809D01*
X562197029Y-283058809D02*
X562136552Y-283179761D01*
X522216242Y-285235951D02*
X521611480Y-285659285D01*
X522216242Y-285961666D02*
X520946242Y-285961666D01*
X520946242Y-285961666D02*
X520946242Y-285477856D01*
X520946242Y-285477856D02*
X521006718Y-285356904D01*
X521006718Y-285356904D02*
X521067194Y-285296427D01*
X521067194Y-285296427D02*
X521188146Y-285235951D01*
X521188146Y-285235951D02*
X521369575Y-285235951D01*
X521369575Y-285235951D02*
X521490527Y-285296427D01*
X521490527Y-285296427D02*
X521551004Y-285356904D01*
X521551004Y-285356904D02*
X521611480Y-285477856D01*
X521611480Y-285477856D02*
X521611480Y-285961666D01*
X520946242Y-284873094D02*
X522216242Y-284449761D01*
X522216242Y-284449761D02*
X520946242Y-284026427D01*
X520946242Y-283058809D02*
X520946242Y-283300714D01*
X520946242Y-283300714D02*
X521006718Y-283421666D01*
X521006718Y-283421666D02*
X521067194Y-283482142D01*
X521067194Y-283482142D02*
X521248623Y-283603095D01*
X521248623Y-283603095D02*
X521490527Y-283663571D01*
X521490527Y-283663571D02*
X521974337Y-283663571D01*
X521974337Y-283663571D02*
X522095289Y-283603095D01*
X522095289Y-283603095D02*
X522155766Y-283542618D01*
X522155766Y-283542618D02*
X522216242Y-283421666D01*
X522216242Y-283421666D02*
X522216242Y-283179761D01*
X522216242Y-283179761D02*
X522155766Y-283058809D01*
X522155766Y-283058809D02*
X522095289Y-282998333D01*
X522095289Y-282998333D02*
X521974337Y-282937856D01*
X521974337Y-282937856D02*
X521671956Y-282937856D01*
X521671956Y-282937856D02*
X521551004Y-282998333D01*
X521551004Y-282998333D02*
X521490527Y-283058809D01*
X521490527Y-283058809D02*
X521430051Y-283179761D01*
X521430051Y-283179761D02*
X521430051Y-283421666D01*
X521430051Y-283421666D02*
X521490527Y-283542618D01*
X521490527Y-283542618D02*
X521551004Y-283603095D01*
X521551004Y-283603095D02*
X521671956Y-283663571D01*
X644154318Y-285840713D02*
X643549556Y-286264047D01*
X644154318Y-286566428D02*
X642884318Y-286566428D01*
X642884318Y-286566428D02*
X642884318Y-286082618D01*
X642884318Y-286082618D02*
X642944794Y-285961666D01*
X642944794Y-285961666D02*
X643005270Y-285901189D01*
X643005270Y-285901189D02*
X643126222Y-285840713D01*
X643126222Y-285840713D02*
X643307651Y-285840713D01*
X643307651Y-285840713D02*
X643428603Y-285901189D01*
X643428603Y-285901189D02*
X643489080Y-285961666D01*
X643489080Y-285961666D02*
X643549556Y-286082618D01*
X643549556Y-286082618D02*
X643549556Y-286566428D01*
X642884318Y-285477856D02*
X644154318Y-285054523D01*
X644154318Y-285054523D02*
X642884318Y-284631189D01*
X644154318Y-283542618D02*
X644154318Y-284268333D01*
X644154318Y-283905476D02*
X642884318Y-283905476D01*
X642884318Y-283905476D02*
X643065746Y-284026428D01*
X643065746Y-284026428D02*
X643186699Y-284147380D01*
X643186699Y-284147380D02*
X643247175Y-284268333D01*
X643005270Y-283058809D02*
X642944794Y-282998333D01*
X642944794Y-282998333D02*
X642884318Y-282877380D01*
X642884318Y-282877380D02*
X642884318Y-282574999D01*
X642884318Y-282574999D02*
X642944794Y-282454047D01*
X642944794Y-282454047D02*
X643005270Y-282393571D01*
X643005270Y-282393571D02*
X643126222Y-282333094D01*
X643126222Y-282333094D02*
X643247175Y-282333094D01*
X643247175Y-282333094D02*
X643428603Y-282393571D01*
X643428603Y-282393571D02*
X644154318Y-283119285D01*
X644154318Y-283119285D02*
X644154318Y-282333094D01*
D11*
X688126667Y-332803200D02*
X688269524Y-332850819D01*
X688269524Y-332850819D02*
X688507619Y-332850819D01*
X688507619Y-332850819D02*
X688602857Y-332803200D01*
X688602857Y-332803200D02*
X688650476Y-332755580D01*
X688650476Y-332755580D02*
X688698095Y-332660342D01*
X688698095Y-332660342D02*
X688698095Y-332565104D01*
X688698095Y-332565104D02*
X688650476Y-332469866D01*
X688650476Y-332469866D02*
X688602857Y-332422247D01*
X688602857Y-332422247D02*
X688507619Y-332374628D01*
X688507619Y-332374628D02*
X688317143Y-332327009D01*
X688317143Y-332327009D02*
X688221905Y-332279390D01*
X688221905Y-332279390D02*
X688174286Y-332231771D01*
X688174286Y-332231771D02*
X688126667Y-332136533D01*
X688126667Y-332136533D02*
X688126667Y-332041295D01*
X688126667Y-332041295D02*
X688174286Y-331946057D01*
X688174286Y-331946057D02*
X688221905Y-331898438D01*
X688221905Y-331898438D02*
X688317143Y-331850819D01*
X688317143Y-331850819D02*
X688555238Y-331850819D01*
X688555238Y-331850819D02*
X688698095Y-331898438D01*
X689031429Y-331850819D02*
X689269524Y-332850819D01*
X689269524Y-332850819D02*
X689460000Y-332136533D01*
X689460000Y-332136533D02*
X689650476Y-332850819D01*
X689650476Y-332850819D02*
X689888572Y-331850819D01*
X690745714Y-331850819D02*
X690269524Y-331850819D01*
X690269524Y-331850819D02*
X690221905Y-332327009D01*
X690221905Y-332327009D02*
X690269524Y-332279390D01*
X690269524Y-332279390D02*
X690364762Y-332231771D01*
X690364762Y-332231771D02*
X690602857Y-332231771D01*
X690602857Y-332231771D02*
X690698095Y-332279390D01*
X690698095Y-332279390D02*
X690745714Y-332327009D01*
X690745714Y-332327009D02*
X690793333Y-332422247D01*
X690793333Y-332422247D02*
X690793333Y-332660342D01*
X690793333Y-332660342D02*
X690745714Y-332755580D01*
X690745714Y-332755580D02*
X690698095Y-332803200D01*
X690698095Y-332803200D02*
X690602857Y-332850819D01*
X690602857Y-332850819D02*
X690364762Y-332850819D01*
X690364762Y-332850819D02*
X690269524Y-332803200D01*
X690269524Y-332803200D02*
X690221905Y-332755580D01*
D10*
X501893229Y-285235951D02*
X501288467Y-285659285D01*
X501893229Y-285961666D02*
X500623229Y-285961666D01*
X500623229Y-285961666D02*
X500623229Y-285477856D01*
X500623229Y-285477856D02*
X500683705Y-285356904D01*
X500683705Y-285356904D02*
X500744181Y-285296427D01*
X500744181Y-285296427D02*
X500865133Y-285235951D01*
X500865133Y-285235951D02*
X501046562Y-285235951D01*
X501046562Y-285235951D02*
X501167514Y-285296427D01*
X501167514Y-285296427D02*
X501227991Y-285356904D01*
X501227991Y-285356904D02*
X501288467Y-285477856D01*
X501288467Y-285477856D02*
X501288467Y-285961666D01*
X500623229Y-284873094D02*
X501893229Y-284449761D01*
X501893229Y-284449761D02*
X500623229Y-284026427D01*
X500623229Y-282998333D02*
X500623229Y-283603095D01*
X500623229Y-283603095D02*
X501227991Y-283663571D01*
X501227991Y-283663571D02*
X501167514Y-283603095D01*
X501167514Y-283603095D02*
X501107038Y-283482142D01*
X501107038Y-283482142D02*
X501107038Y-283179761D01*
X501107038Y-283179761D02*
X501167514Y-283058809D01*
X501167514Y-283058809D02*
X501227991Y-282998333D01*
X501227991Y-282998333D02*
X501348943Y-282937856D01*
X501348943Y-282937856D02*
X501651324Y-282937856D01*
X501651324Y-282937856D02*
X501772276Y-282998333D01*
X501772276Y-282998333D02*
X501832753Y-283058809D01*
X501832753Y-283058809D02*
X501893229Y-283179761D01*
X501893229Y-283179761D02*
X501893229Y-283482142D01*
X501893229Y-283482142D02*
X501832753Y-283603095D01*
X501832753Y-283603095D02*
X501772276Y-283663571D01*
D11*
X688126667Y-208963200D02*
X688269524Y-209010819D01*
X688269524Y-209010819D02*
X688507619Y-209010819D01*
X688507619Y-209010819D02*
X688602857Y-208963200D01*
X688602857Y-208963200D02*
X688650476Y-208915580D01*
X688650476Y-208915580D02*
X688698095Y-208820342D01*
X688698095Y-208820342D02*
X688698095Y-208725104D01*
X688698095Y-208725104D02*
X688650476Y-208629866D01*
X688650476Y-208629866D02*
X688602857Y-208582247D01*
X688602857Y-208582247D02*
X688507619Y-208534628D01*
X688507619Y-208534628D02*
X688317143Y-208487009D01*
X688317143Y-208487009D02*
X688221905Y-208439390D01*
X688221905Y-208439390D02*
X688174286Y-208391771D01*
X688174286Y-208391771D02*
X688126667Y-208296533D01*
X688126667Y-208296533D02*
X688126667Y-208201295D01*
X688126667Y-208201295D02*
X688174286Y-208106057D01*
X688174286Y-208106057D02*
X688221905Y-208058438D01*
X688221905Y-208058438D02*
X688317143Y-208010819D01*
X688317143Y-208010819D02*
X688555238Y-208010819D01*
X688555238Y-208010819D02*
X688698095Y-208058438D01*
X689031429Y-208010819D02*
X689269524Y-209010819D01*
X689269524Y-209010819D02*
X689460000Y-208296533D01*
X689460000Y-208296533D02*
X689650476Y-209010819D01*
X689650476Y-209010819D02*
X689888572Y-208010819D01*
X690793333Y-209010819D02*
X690221905Y-209010819D01*
X690507619Y-209010819D02*
X690507619Y-208010819D01*
X690507619Y-208010819D02*
X690412381Y-208153676D01*
X690412381Y-208153676D02*
X690317143Y-208248914D01*
X690317143Y-208248914D02*
X690221905Y-208296533D01*
D10*
X481570216Y-285235951D02*
X480965454Y-285659285D01*
X481570216Y-285961666D02*
X480300216Y-285961666D01*
X480300216Y-285961666D02*
X480300216Y-285477856D01*
X480300216Y-285477856D02*
X480360692Y-285356904D01*
X480360692Y-285356904D02*
X480421168Y-285296427D01*
X480421168Y-285296427D02*
X480542120Y-285235951D01*
X480542120Y-285235951D02*
X480723549Y-285235951D01*
X480723549Y-285235951D02*
X480844501Y-285296427D01*
X480844501Y-285296427D02*
X480904978Y-285356904D01*
X480904978Y-285356904D02*
X480965454Y-285477856D01*
X480965454Y-285477856D02*
X480965454Y-285961666D01*
X480300216Y-284873094D02*
X481570216Y-284449761D01*
X481570216Y-284449761D02*
X480300216Y-284026427D01*
X480723549Y-283058809D02*
X481570216Y-283058809D01*
X480239740Y-283361190D02*
X481146882Y-283663571D01*
X481146882Y-283663571D02*
X481146882Y-282877380D01*
X461247203Y-285235951D02*
X460642441Y-285659285D01*
X461247203Y-285961666D02*
X459977203Y-285961666D01*
X459977203Y-285961666D02*
X459977203Y-285477856D01*
X459977203Y-285477856D02*
X460037679Y-285356904D01*
X460037679Y-285356904D02*
X460098155Y-285296427D01*
X460098155Y-285296427D02*
X460219107Y-285235951D01*
X460219107Y-285235951D02*
X460400536Y-285235951D01*
X460400536Y-285235951D02*
X460521488Y-285296427D01*
X460521488Y-285296427D02*
X460581965Y-285356904D01*
X460581965Y-285356904D02*
X460642441Y-285477856D01*
X460642441Y-285477856D02*
X460642441Y-285961666D01*
X459977203Y-284873094D02*
X461247203Y-284449761D01*
X461247203Y-284449761D02*
X459977203Y-284026427D01*
X459977203Y-283724047D02*
X459977203Y-282937856D01*
X459977203Y-282937856D02*
X460461012Y-283361190D01*
X460461012Y-283361190D02*
X460461012Y-283179761D01*
X460461012Y-283179761D02*
X460521488Y-283058809D01*
X460521488Y-283058809D02*
X460581965Y-282998333D01*
X460581965Y-282998333D02*
X460702917Y-282937856D01*
X460702917Y-282937856D02*
X461005298Y-282937856D01*
X461005298Y-282937856D02*
X461126250Y-282998333D01*
X461126250Y-282998333D02*
X461186727Y-283058809D01*
X461186727Y-283058809D02*
X461247203Y-283179761D01*
X461247203Y-283179761D02*
X461247203Y-283542618D01*
X461247203Y-283542618D02*
X461186727Y-283663571D01*
X461186727Y-283663571D02*
X461126250Y-283724047D01*
X623831305Y-285840713D02*
X623226543Y-286264047D01*
X623831305Y-286566428D02*
X622561305Y-286566428D01*
X622561305Y-286566428D02*
X622561305Y-286082618D01*
X622561305Y-286082618D02*
X622621781Y-285961666D01*
X622621781Y-285961666D02*
X622682257Y-285901189D01*
X622682257Y-285901189D02*
X622803209Y-285840713D01*
X622803209Y-285840713D02*
X622984638Y-285840713D01*
X622984638Y-285840713D02*
X623105590Y-285901189D01*
X623105590Y-285901189D02*
X623166067Y-285961666D01*
X623166067Y-285961666D02*
X623226543Y-286082618D01*
X623226543Y-286082618D02*
X623226543Y-286566428D01*
X622561305Y-285477856D02*
X623831305Y-285054523D01*
X623831305Y-285054523D02*
X622561305Y-284631189D01*
X623831305Y-283542618D02*
X623831305Y-284268333D01*
X623831305Y-283905476D02*
X622561305Y-283905476D01*
X622561305Y-283905476D02*
X622742733Y-284026428D01*
X622742733Y-284026428D02*
X622863686Y-284147380D01*
X622863686Y-284147380D02*
X622924162Y-284268333D01*
X623831305Y-282333094D02*
X623831305Y-283058809D01*
X623831305Y-282695952D02*
X622561305Y-282695952D01*
X622561305Y-282695952D02*
X622742733Y-282816904D01*
X622742733Y-282816904D02*
X622863686Y-282937856D01*
X622863686Y-282937856D02*
X622924162Y-283058809D01*
D11*
X688126667Y-270883200D02*
X688269524Y-270930819D01*
X688269524Y-270930819D02*
X688507619Y-270930819D01*
X688507619Y-270930819D02*
X688602857Y-270883200D01*
X688602857Y-270883200D02*
X688650476Y-270835580D01*
X688650476Y-270835580D02*
X688698095Y-270740342D01*
X688698095Y-270740342D02*
X688698095Y-270645104D01*
X688698095Y-270645104D02*
X688650476Y-270549866D01*
X688650476Y-270549866D02*
X688602857Y-270502247D01*
X688602857Y-270502247D02*
X688507619Y-270454628D01*
X688507619Y-270454628D02*
X688317143Y-270407009D01*
X688317143Y-270407009D02*
X688221905Y-270359390D01*
X688221905Y-270359390D02*
X688174286Y-270311771D01*
X688174286Y-270311771D02*
X688126667Y-270216533D01*
X688126667Y-270216533D02*
X688126667Y-270121295D01*
X688126667Y-270121295D02*
X688174286Y-270026057D01*
X688174286Y-270026057D02*
X688221905Y-269978438D01*
X688221905Y-269978438D02*
X688317143Y-269930819D01*
X688317143Y-269930819D02*
X688555238Y-269930819D01*
X688555238Y-269930819D02*
X688698095Y-269978438D01*
X689031429Y-269930819D02*
X689269524Y-270930819D01*
X689269524Y-270930819D02*
X689460000Y-270216533D01*
X689460000Y-270216533D02*
X689650476Y-270930819D01*
X689650476Y-270930819D02*
X689888572Y-269930819D01*
X690174286Y-269930819D02*
X690793333Y-269930819D01*
X690793333Y-269930819D02*
X690460000Y-270311771D01*
X690460000Y-270311771D02*
X690602857Y-270311771D01*
X690602857Y-270311771D02*
X690698095Y-270359390D01*
X690698095Y-270359390D02*
X690745714Y-270407009D01*
X690745714Y-270407009D02*
X690793333Y-270502247D01*
X690793333Y-270502247D02*
X690793333Y-270740342D01*
X690793333Y-270740342D02*
X690745714Y-270835580D01*
X690745714Y-270835580D02*
X690698095Y-270883200D01*
X690698095Y-270883200D02*
X690602857Y-270930819D01*
X690602857Y-270930819D02*
X690317143Y-270930819D01*
X690317143Y-270930819D02*
X690221905Y-270883200D01*
X690221905Y-270883200D02*
X690174286Y-270835580D01*
X738046667Y-270883200D02*
X738189524Y-270930819D01*
X738189524Y-270930819D02*
X738427619Y-270930819D01*
X738427619Y-270930819D02*
X738522857Y-270883200D01*
X738522857Y-270883200D02*
X738570476Y-270835580D01*
X738570476Y-270835580D02*
X738618095Y-270740342D01*
X738618095Y-270740342D02*
X738618095Y-270645104D01*
X738618095Y-270645104D02*
X738570476Y-270549866D01*
X738570476Y-270549866D02*
X738522857Y-270502247D01*
X738522857Y-270502247D02*
X738427619Y-270454628D01*
X738427619Y-270454628D02*
X738237143Y-270407009D01*
X738237143Y-270407009D02*
X738141905Y-270359390D01*
X738141905Y-270359390D02*
X738094286Y-270311771D01*
X738094286Y-270311771D02*
X738046667Y-270216533D01*
X738046667Y-270216533D02*
X738046667Y-270121295D01*
X738046667Y-270121295D02*
X738094286Y-270026057D01*
X738094286Y-270026057D02*
X738141905Y-269978438D01*
X738141905Y-269978438D02*
X738237143Y-269930819D01*
X738237143Y-269930819D02*
X738475238Y-269930819D01*
X738475238Y-269930819D02*
X738618095Y-269978438D01*
X738951429Y-269930819D02*
X739189524Y-270930819D01*
X739189524Y-270930819D02*
X739380000Y-270216533D01*
X739380000Y-270216533D02*
X739570476Y-270930819D01*
X739570476Y-270930819D02*
X739808572Y-269930819D01*
X740618095Y-270264152D02*
X740618095Y-270930819D01*
X740380000Y-269883200D02*
X740141905Y-270597485D01*
X740141905Y-270597485D02*
X740760952Y-270597485D01*
D12*
%TO.C,RV7*%
X534464936Y-220480000D02*
X534464936Y-348480000D01*
X534464936Y-348480000D02*
X541514936Y-348480000D01*
X541514936Y-220480000D02*
X534464936Y-220480000D01*
D13*
X542914936Y-219030000D02*
X542914936Y-219030000D01*
X542914936Y-219130000D02*
X542914936Y-219130000D01*
D12*
X544314936Y-348480000D02*
X549464936Y-348480000D01*
X549464936Y-348480000D02*
X549514936Y-220480000D01*
X549514936Y-220480000D02*
X548114936Y-220480000D01*
D13*
X542914936Y-219030000D02*
G75*
G02*
X542914936Y-219130000I0J-50000D01*
G01*
X542914936Y-219130000D02*
G75*
G02*
X542914936Y-219030000I0J50000D01*
G01*
D12*
%TO.C,RV2*%
X432849873Y-220480000D02*
X432849873Y-348480000D01*
X432849873Y-348480000D02*
X439899873Y-348480000D01*
X439899873Y-220480000D02*
X432849873Y-220480000D01*
D13*
X441299873Y-219030000D02*
X441299873Y-219030000D01*
X441299873Y-219130000D02*
X441299873Y-219130000D01*
D12*
X442699873Y-348480000D02*
X447849873Y-348480000D01*
X447849873Y-348480000D02*
X447899873Y-220480000D01*
X447899873Y-220480000D02*
X446499873Y-220480000D01*
D13*
X441299873Y-219030000D02*
G75*
G02*
X441299873Y-219130000I0J-50000D01*
G01*
X441299873Y-219130000D02*
G75*
G02*
X441299873Y-219030000I0J50000D01*
G01*
D12*
%TO.C,RV10*%
X595433975Y-220480000D02*
X595433975Y-348480000D01*
X595433975Y-348480000D02*
X602483975Y-348480000D01*
X602483975Y-220480000D02*
X595433975Y-220480000D01*
D13*
X603883975Y-219030000D02*
X603883975Y-219030000D01*
X603883975Y-219130000D02*
X603883975Y-219130000D01*
D12*
X605283975Y-348480000D02*
X610433975Y-348480000D01*
X610433975Y-348480000D02*
X610483975Y-220480000D01*
X610483975Y-220480000D02*
X609083975Y-220480000D01*
D13*
X603883975Y-219030000D02*
G75*
G02*
X603883975Y-219130000I0J-50000D01*
G01*
X603883975Y-219130000D02*
G75*
G02*
X603883975Y-219030000I0J50000D01*
G01*
D14*
%TO.C,SW2*%
X732395000Y-209445000D02*
X746365000Y-209445000D01*
X732395000Y-223415000D02*
X732395000Y-209445000D01*
X746365000Y-209445000D02*
X746365000Y-223415000D01*
X746365000Y-223415000D02*
X732395000Y-223415000D01*
%TO.C,SW6*%
X732395000Y-333285000D02*
X746365000Y-333285000D01*
X732395000Y-347255000D02*
X732395000Y-333285000D01*
X746365000Y-333285000D02*
X746365000Y-347255000D01*
X746365000Y-347255000D02*
X732395000Y-347255000D01*
D12*
%TO.C,RV9*%
X575110962Y-220480000D02*
X575110962Y-348480000D01*
X575110962Y-348480000D02*
X582160962Y-348480000D01*
X582160962Y-220480000D02*
X575110962Y-220480000D01*
D13*
X583560962Y-219030000D02*
X583560962Y-219030000D01*
X583560962Y-219130000D02*
X583560962Y-219130000D01*
D12*
X584960962Y-348480000D02*
X590110962Y-348480000D01*
X590110962Y-348480000D02*
X590160962Y-220480000D01*
X590160962Y-220480000D02*
X588760962Y-220480000D01*
D13*
X583560962Y-219030000D02*
G75*
G02*
X583560962Y-219130000I0J-50000D01*
G01*
X583560962Y-219130000D02*
G75*
G02*
X583560962Y-219030000I0J50000D01*
G01*
D12*
%TO.C,RV1*%
X412526860Y-220480000D02*
X412526860Y-348480000D01*
X412526860Y-348480000D02*
X419576860Y-348480000D01*
X419576860Y-220480000D02*
X412526860Y-220480000D01*
D13*
X420976860Y-219030000D02*
X420976860Y-219030000D01*
X420976860Y-219130000D02*
X420976860Y-219130000D01*
D12*
X422376860Y-348480000D02*
X427526860Y-348480000D01*
X427526860Y-348480000D02*
X427576860Y-220480000D01*
X427576860Y-220480000D02*
X426176860Y-220480000D01*
D13*
X420976860Y-219030000D02*
G75*
G02*
X420976860Y-219130000I0J-50000D01*
G01*
X420976860Y-219130000D02*
G75*
G02*
X420976860Y-219030000I0J50000D01*
G01*
D12*
%TO.C,RV8*%
X554787949Y-220480000D02*
X554787949Y-348480000D01*
X554787949Y-348480000D02*
X561837949Y-348480000D01*
X561837949Y-220480000D02*
X554787949Y-220480000D01*
D13*
X563237949Y-219030000D02*
X563237949Y-219030000D01*
X563237949Y-219130000D02*
X563237949Y-219130000D01*
D12*
X564637949Y-348480000D02*
X569787949Y-348480000D01*
X569787949Y-348480000D02*
X569837949Y-220480000D01*
X569837949Y-220480000D02*
X568437949Y-220480000D01*
D13*
X563237949Y-219030000D02*
G75*
G02*
X563237949Y-219130000I0J-50000D01*
G01*
X563237949Y-219130000D02*
G75*
G02*
X563237949Y-219030000I0J50000D01*
G01*
D12*
%TO.C,RV6*%
X514141924Y-220480000D02*
X514141924Y-348480000D01*
X514141924Y-348480000D02*
X521191924Y-348480000D01*
X521191924Y-220480000D02*
X514141924Y-220480000D01*
D13*
X522591924Y-219030000D02*
X522591924Y-219030000D01*
X522591924Y-219130000D02*
X522591924Y-219130000D01*
D12*
X523991924Y-348480000D02*
X529141924Y-348480000D01*
X529141924Y-348480000D02*
X529191924Y-220480000D01*
X529191924Y-220480000D02*
X527791924Y-220480000D01*
D13*
X522591924Y-219030000D02*
G75*
G02*
X522591924Y-219130000I0J-50000D01*
G01*
X522591924Y-219130000D02*
G75*
G02*
X522591924Y-219030000I0J50000D01*
G01*
D12*
%TO.C,RV12*%
X636080000Y-220480000D02*
X636080000Y-348480000D01*
X636080000Y-348480000D02*
X643130000Y-348480000D01*
X643130000Y-220480000D02*
X636080000Y-220480000D01*
D13*
X644530000Y-219030000D02*
X644530000Y-219030000D01*
X644530000Y-219130000D02*
X644530000Y-219130000D01*
D12*
X645930000Y-348480000D02*
X651080000Y-348480000D01*
X651080000Y-348480000D02*
X651130000Y-220480000D01*
X651130000Y-220480000D02*
X649730000Y-220480000D01*
D13*
X644530000Y-219030000D02*
G75*
G02*
X644530000Y-219130000I0J-50000D01*
G01*
X644530000Y-219130000D02*
G75*
G02*
X644530000Y-219030000I0J50000D01*
G01*
D14*
%TO.C,SW5*%
X682475000Y-333285000D02*
X696445000Y-333285000D01*
X682475000Y-347255000D02*
X682475000Y-333285000D01*
X696445000Y-333285000D02*
X696445000Y-347255000D01*
X696445000Y-347255000D02*
X682475000Y-347255000D01*
D12*
%TO.C,RV5*%
X493818911Y-220480000D02*
X493818911Y-348480000D01*
X493818911Y-348480000D02*
X500868911Y-348480000D01*
X500868911Y-220480000D02*
X493818911Y-220480000D01*
D13*
X502268911Y-219030000D02*
X502268911Y-219030000D01*
X502268911Y-219130000D02*
X502268911Y-219130000D01*
D12*
X503668911Y-348480000D02*
X508818911Y-348480000D01*
X508818911Y-348480000D02*
X508868911Y-220480000D01*
X508868911Y-220480000D02*
X507468911Y-220480000D01*
D13*
X502268911Y-219030000D02*
G75*
G02*
X502268911Y-219130000I0J-50000D01*
G01*
X502268911Y-219130000D02*
G75*
G02*
X502268911Y-219030000I0J50000D01*
G01*
D14*
%TO.C,SW1*%
X682475000Y-209445000D02*
X696445000Y-209445000D01*
X682475000Y-223415000D02*
X682475000Y-209445000D01*
X696445000Y-209445000D02*
X696445000Y-223415000D01*
X696445000Y-223415000D02*
X682475000Y-223415000D01*
D12*
%TO.C,RV4*%
X473495898Y-220480000D02*
X473495898Y-348480000D01*
X473495898Y-348480000D02*
X480545898Y-348480000D01*
X480545898Y-220480000D02*
X473495898Y-220480000D01*
D13*
X481945898Y-219030000D02*
X481945898Y-219030000D01*
X481945898Y-219130000D02*
X481945898Y-219130000D01*
D12*
X483345898Y-348480000D02*
X488495898Y-348480000D01*
X488495898Y-348480000D02*
X488545898Y-220480000D01*
X488545898Y-220480000D02*
X487145898Y-220480000D01*
D13*
X481945898Y-219030000D02*
G75*
G02*
X481945898Y-219130000I0J-50000D01*
G01*
X481945898Y-219130000D02*
G75*
G02*
X481945898Y-219030000I0J50000D01*
G01*
D12*
%TO.C,RV3*%
X453172885Y-220480000D02*
X453172885Y-348480000D01*
X453172885Y-348480000D02*
X460222885Y-348480000D01*
X460222885Y-220480000D02*
X453172885Y-220480000D01*
D13*
X461622885Y-219030000D02*
X461622885Y-219030000D01*
X461622885Y-219130000D02*
X461622885Y-219130000D01*
D12*
X463022885Y-348480000D02*
X468172885Y-348480000D01*
X468172885Y-348480000D02*
X468222885Y-220480000D01*
X468222885Y-220480000D02*
X466822885Y-220480000D01*
D13*
X461622885Y-219030000D02*
G75*
G02*
X461622885Y-219130000I0J-50000D01*
G01*
X461622885Y-219130000D02*
G75*
G02*
X461622885Y-219030000I0J50000D01*
G01*
D12*
%TO.C,RV11*%
X615756987Y-220480000D02*
X615756987Y-348480000D01*
X615756987Y-348480000D02*
X622806987Y-348480000D01*
X622806987Y-220480000D02*
X615756987Y-220480000D01*
D13*
X624206987Y-219030000D02*
X624206987Y-219030000D01*
X624206987Y-219130000D02*
X624206987Y-219130000D01*
D12*
X625606987Y-348480000D02*
X630756987Y-348480000D01*
X630756987Y-348480000D02*
X630806987Y-220480000D01*
X630806987Y-220480000D02*
X629406987Y-220480000D01*
D13*
X624206987Y-219030000D02*
G75*
G02*
X624206987Y-219130000I0J-50000D01*
G01*
X624206987Y-219130000D02*
G75*
G02*
X624206987Y-219030000I0J50000D01*
G01*
D14*
%TO.C,SW3*%
X682475000Y-271365000D02*
X696445000Y-271365000D01*
X682475000Y-285335000D02*
X682475000Y-271365000D01*
X696445000Y-271365000D02*
X696445000Y-285335000D01*
X696445000Y-285335000D02*
X682475000Y-285335000D01*
%TO.C,SW4*%
X732395000Y-271365000D02*
X746365000Y-271365000D01*
X732395000Y-285335000D02*
X732395000Y-271365000D01*
X746365000Y-271365000D02*
X746365000Y-285335000D01*
X746365000Y-285335000D02*
X732395000Y-285335000D01*
%TD*%
M02*
