%TF.GenerationSoftware,KiCad,Pcbnew,9.0.1*%
%TF.CreationDate,2025-07-07T17:58:15-06:00*%
%TF.ProjectId,MixDeck v1,4d697844-6563-46b2-9076-312e6b696361,rev?*%
%TF.SameCoordinates,Original*%
%TF.FileFunction,Copper,L2,Bot*%
%TF.FilePolarity,Positive*%
%FSLAX46Y46*%
G04 Gerber Fmt 4.6, Leading zero omitted, Abs format (unit mm)*
G04 Created by KiCad (PCBNEW 9.0.1) date 2025-07-07 17:58:15*
%MOMM*%
%LPD*%
G01*
G04 APERTURE LIST*
G04 Aperture macros list*
%AMRoundRect*
0 Rectangle with rounded corners*
0 $1 Rounding radius*
0 $2 $3 $4 $5 $6 $7 $8 $9 X,Y pos of 4 corners*
0 Add a 4 corners polygon primitive as box body*
4,1,4,$2,$3,$4,$5,$6,$7,$8,$9,$2,$3,0*
0 Add four circle primitives for the rounded corners*
1,1,$1+$1,$2,$3*
1,1,$1+$1,$4,$5*
1,1,$1+$1,$6,$7*
1,1,$1+$1,$8,$9*
0 Add four rect primitives between the rounded corners*
20,1,$1+$1,$2,$3,$4,$5,0*
20,1,$1+$1,$4,$5,$6,$7,0*
20,1,$1+$1,$6,$7,$8,$9,0*
20,1,$1+$1,$8,$9,$2,$3,0*%
%AMFreePoly0*
4,1,37,0.800000,0.796148,0.878414,0.796148,1.032228,0.765552,1.177117,0.705537,1.307515,0.618408,1.418408,0.507515,1.505537,0.377117,1.565552,0.232228,1.596148,0.078414,1.596148,-0.078414,1.565552,-0.232228,1.505537,-0.377117,1.418408,-0.507515,1.307515,-0.618408,1.177117,-0.705537,1.032228,-0.765552,0.878414,-0.796148,0.800000,-0.796148,0.800000,-0.800000,-1.400000,-0.800000,
-1.403843,-0.796157,-1.439018,-0.796157,-1.511114,-0.766294,-1.566294,-0.711114,-1.596157,-0.639018,-1.596157,-0.603843,-1.600000,-0.600000,-1.600000,0.600000,-1.596157,0.603843,-1.596157,0.639018,-1.566294,0.711114,-1.511114,0.766294,-1.439018,0.796157,-1.403843,0.796157,-1.400000,0.800000,0.800000,0.800000,0.800000,0.796148,0.800000,0.796148,$1*%
%AMFreePoly1*
4,1,37,1.403843,0.796157,1.439018,0.796157,1.511114,0.766294,1.566294,0.711114,1.596157,0.639018,1.596157,0.603843,1.600000,0.600000,1.600000,-0.600000,1.596157,-0.603843,1.596157,-0.639018,1.566294,-0.711114,1.511114,-0.766294,1.439018,-0.796157,1.403843,-0.796157,1.400000,-0.800000,-0.800000,-0.800000,-0.800000,-0.796148,-0.878414,-0.796148,-1.032228,-0.765552,-1.177117,-0.705537,
-1.307515,-0.618408,-1.418408,-0.507515,-1.505537,-0.377117,-1.565552,-0.232228,-1.596148,-0.078414,-1.596148,0.078414,-1.565552,0.232228,-1.505537,0.377117,-1.418408,0.507515,-1.307515,0.618408,-1.177117,0.705537,-1.032228,0.765552,-0.878414,0.796148,-0.800000,0.796148,-0.800000,0.800000,1.400000,0.800000,1.403843,0.796157,1.403843,0.796157,$1*%
%AMFreePoly2*
4,1,37,0.603843,0.796157,0.639018,0.796157,0.711114,0.766294,0.766294,0.711114,0.796157,0.639018,0.796157,0.603843,0.800000,0.600000,0.800000,-0.600000,0.796157,-0.603843,0.796157,-0.639018,0.766294,-0.711114,0.711114,-0.766294,0.639018,-0.796157,0.603843,-0.796157,0.600000,-0.800000,0.000000,-0.800000,0.000000,-0.796148,-0.078414,-0.796148,-0.232228,-0.765552,-0.377117,-0.705537,
-0.507515,-0.618408,-0.618408,-0.507515,-0.705537,-0.377117,-0.765552,-0.232228,-0.796148,-0.078414,-0.796148,0.078414,-0.765552,0.232228,-0.705537,0.377117,-0.618408,0.507515,-0.507515,0.618408,-0.377117,0.705537,-0.232228,0.765552,-0.078414,0.796148,0.000000,0.796148,0.000000,0.800000,0.600000,0.800000,0.603843,0.796157,0.603843,0.796157,$1*%
%AMFreePoly3*
4,1,37,0.000000,0.796148,0.078414,0.796148,0.232228,0.765552,0.377117,0.705537,0.507515,0.618408,0.618408,0.507515,0.705537,0.377117,0.765552,0.232228,0.796148,0.078414,0.796148,-0.078414,0.765552,-0.232228,0.705537,-0.377117,0.618408,-0.507515,0.507515,-0.618408,0.377117,-0.705537,0.232228,-0.765552,0.078414,-0.796148,0.000000,-0.796148,0.000000,-0.800000,-0.600000,-0.800000,
-0.603843,-0.796157,-0.639018,-0.796157,-0.711114,-0.766294,-0.766294,-0.711114,-0.796157,-0.639018,-0.796157,-0.603843,-0.800000,-0.600000,-0.800000,0.600000,-0.796157,0.603843,-0.796157,0.639018,-0.766294,0.711114,-0.711114,0.766294,-0.639018,0.796157,-0.603843,0.796157,-0.600000,0.800000,0.000000,0.800000,0.000000,0.796148,0.000000,0.796148,$1*%
G04 Aperture macros list end*
%TA.AperFunction,ComponentPad*%
%ADD10R,2.250000X2.250000*%
%TD*%
%TA.AperFunction,ComponentPad*%
%ADD11C,2.250000*%
%TD*%
%TA.AperFunction,ComponentPad*%
%ADD12C,3.000000*%
%TD*%
%TA.AperFunction,ComponentPad*%
%ADD13C,2.200000*%
%TD*%
%TA.AperFunction,SMDPad,CuDef*%
%ADD14RoundRect,0.150000X0.150000X-0.875000X0.150000X0.875000X-0.150000X0.875000X-0.150000X-0.875000X0*%
%TD*%
%TA.AperFunction,SMDPad,CuDef*%
%ADD15FreePoly0,180.000000*%
%TD*%
%TA.AperFunction,ComponentPad*%
%ADD16RoundRect,0.200000X0.600000X0.600000X-0.600000X0.600000X-0.600000X-0.600000X0.600000X-0.600000X0*%
%TD*%
%TA.AperFunction,SMDPad,CuDef*%
%ADD17RoundRect,0.800000X0.800000X0.000010X-0.800000X0.000010X-0.800000X-0.000010X0.800000X-0.000010X0*%
%TD*%
%TA.AperFunction,ComponentPad*%
%ADD18C,1.600000*%
%TD*%
%TA.AperFunction,SMDPad,CuDef*%
%ADD19FreePoly1,180.000000*%
%TD*%
%TA.AperFunction,ComponentPad*%
%ADD20FreePoly2,180.000000*%
%TD*%
%TA.AperFunction,ComponentPad*%
%ADD21FreePoly3,180.000000*%
%TD*%
%TA.AperFunction,ViaPad*%
%ADD22C,0.600000*%
%TD*%
%TA.AperFunction,Conductor*%
%ADD23C,0.200000*%
%TD*%
G04 APERTURE END LIST*
D10*
%TO.P,RV7,1,1*%
%TO.N,REFV*%
X542914936Y-220730000D03*
D11*
%TO.P,RV7,2,2*%
%TO.N,Net-(U1-I6)*%
X546714936Y-220730000D03*
%TO.P,RV7,3,3*%
%TO.N,GND*%
X542914936Y-348230000D03*
D12*
%TO.P,RV7,MH1*%
%TO.N,N/C*%
X541964936Y-240780000D03*
%TO.P,RV7,MH2*%
X541964936Y-323280000D03*
%TD*%
D10*
%TO.P,RV2,1,1*%
%TO.N,REFV*%
X441299873Y-220730000D03*
D11*
%TO.P,RV2,2,2*%
%TO.N,Net-(U1-I1)*%
X445099873Y-220730000D03*
%TO.P,RV2,3,3*%
%TO.N,GND*%
X441299873Y-348230000D03*
D12*
%TO.P,RV2,MH1*%
%TO.N,N/C*%
X440349873Y-240780000D03*
%TO.P,RV2,MH2*%
X440349873Y-323280000D03*
%TD*%
D10*
%TO.P,RV10,1,1*%
%TO.N,REFV*%
X603883975Y-220730000D03*
D11*
%TO.P,RV10,2,2*%
%TO.N,Net-(U1-I9)*%
X607683975Y-220730000D03*
%TO.P,RV10,3,3*%
%TO.N,GND*%
X603883975Y-348230000D03*
D12*
%TO.P,RV10,MH1*%
%TO.N,N/C*%
X602933975Y-240780000D03*
%TO.P,RV10,MH2*%
X602933975Y-323280000D03*
%TD*%
D13*
%TO.P,SW2,1,1*%
%TO.N,GND*%
X741920000Y-211350000D03*
%TO.P,SW2,2,2*%
%TO.N,Bttn2*%
X735570000Y-213890000D03*
%TD*%
%TO.P,SW6,1,1*%
%TO.N,GND*%
X741920000Y-335190000D03*
%TO.P,SW6,2,2*%
%TO.N,Bttn6*%
X735570000Y-337730000D03*
%TD*%
D10*
%TO.P,RV9,1,1*%
%TO.N,REFV*%
X583560962Y-220730000D03*
D11*
%TO.P,RV9,2,2*%
%TO.N,Net-(U1-I8)*%
X587360962Y-220730000D03*
%TO.P,RV9,3,3*%
%TO.N,GND*%
X583560962Y-348230000D03*
D12*
%TO.P,RV9,MH1*%
%TO.N,N/C*%
X582610962Y-240780000D03*
%TO.P,RV9,MH2*%
X582610962Y-323280000D03*
%TD*%
D10*
%TO.P,RV1,1,1*%
%TO.N,REFV*%
X420976860Y-220730000D03*
D11*
%TO.P,RV1,2,2*%
%TO.N,Net-(U1-I0)*%
X424776860Y-220730000D03*
%TO.P,RV1,3,3*%
%TO.N,GND*%
X420976860Y-348230000D03*
D12*
%TO.P,RV1,MH1*%
%TO.N,N/C*%
X420026860Y-240780000D03*
%TO.P,RV1,MH2*%
X420026860Y-323280000D03*
%TD*%
D10*
%TO.P,RV8,1,1*%
%TO.N,REFV*%
X563237949Y-220730000D03*
D11*
%TO.P,RV8,2,2*%
%TO.N,Net-(U1-I7)*%
X567037949Y-220730000D03*
%TO.P,RV8,3,3*%
%TO.N,GND*%
X563237949Y-348230000D03*
D12*
%TO.P,RV8,MH1*%
%TO.N,N/C*%
X562287949Y-240780000D03*
%TO.P,RV8,MH2*%
X562287949Y-323280000D03*
%TD*%
D10*
%TO.P,RV6,1,1*%
%TO.N,REFV*%
X522591924Y-220730000D03*
D11*
%TO.P,RV6,2,2*%
%TO.N,Net-(U1-I5)*%
X526391924Y-220730000D03*
%TO.P,RV6,3,3*%
%TO.N,GND*%
X522591924Y-348230000D03*
D12*
%TO.P,RV6,MH1*%
%TO.N,N/C*%
X521641924Y-240780000D03*
%TO.P,RV6,MH2*%
X521641924Y-323280000D03*
%TD*%
D10*
%TO.P,RV12,1,1*%
%TO.N,REFV*%
X644530000Y-220730000D03*
D11*
%TO.P,RV12,2,2*%
%TO.N,Net-(U1-I11)*%
X648330000Y-220730000D03*
%TO.P,RV12,3,3*%
%TO.N,GND*%
X644530000Y-348230000D03*
D12*
%TO.P,RV12,MH1*%
%TO.N,N/C*%
X643580000Y-240780000D03*
%TO.P,RV12,MH2*%
X643580000Y-323280000D03*
%TD*%
D13*
%TO.P,SW5,1,1*%
%TO.N,GND*%
X692000000Y-335190000D03*
%TO.P,SW5,2,2*%
%TO.N,Bttn5*%
X685650000Y-337730000D03*
%TD*%
D10*
%TO.P,RV5,1,1*%
%TO.N,REFV*%
X502268911Y-220730000D03*
D11*
%TO.P,RV5,2,2*%
%TO.N,Net-(U1-I4)*%
X506068911Y-220730000D03*
%TO.P,RV5,3,3*%
%TO.N,GND*%
X502268911Y-348230000D03*
D12*
%TO.P,RV5,MH1*%
%TO.N,N/C*%
X501318911Y-240780000D03*
%TO.P,RV5,MH2*%
X501318911Y-323280000D03*
%TD*%
D13*
%TO.P,SW1,1,1*%
%TO.N,GND*%
X692000000Y-211350000D03*
%TO.P,SW1,2,2*%
%TO.N,Bttn1*%
X685650000Y-213890000D03*
%TD*%
D10*
%TO.P,RV4,1,1*%
%TO.N,REFV*%
X481945898Y-220730000D03*
D11*
%TO.P,RV4,2,2*%
%TO.N,Net-(U1-I3)*%
X485745898Y-220730000D03*
%TO.P,RV4,3,3*%
%TO.N,GND*%
X481945898Y-348230000D03*
D12*
%TO.P,RV4,MH1*%
%TO.N,N/C*%
X480995898Y-240780000D03*
%TO.P,RV4,MH2*%
X480995898Y-323280000D03*
%TD*%
D10*
%TO.P,RV3,1,1*%
%TO.N,REFV*%
X461622885Y-220730000D03*
D11*
%TO.P,RV3,2,2*%
%TO.N,Net-(U1-I2)*%
X465422885Y-220730000D03*
%TO.P,RV3,3,3*%
%TO.N,GND*%
X461622885Y-348230000D03*
D12*
%TO.P,RV3,MH1*%
%TO.N,N/C*%
X460672885Y-240780000D03*
%TO.P,RV3,MH2*%
X460672885Y-323280000D03*
%TD*%
D10*
%TO.P,RV11,1,1*%
%TO.N,REFV*%
X624206987Y-220730000D03*
D11*
%TO.P,RV11,2,2*%
%TO.N,Net-(U1-I10)*%
X628006987Y-220730000D03*
%TO.P,RV11,3,3*%
%TO.N,GND*%
X624206987Y-348230000D03*
D12*
%TO.P,RV11,MH1*%
%TO.N,N/C*%
X623256987Y-240780000D03*
%TO.P,RV11,MH2*%
X623256987Y-323280000D03*
%TD*%
D13*
%TO.P,SW3,1,1*%
%TO.N,GND*%
X692000000Y-273270000D03*
%TO.P,SW3,2,2*%
%TO.N,Bttn4*%
X685650000Y-275810000D03*
%TD*%
%TO.P,SW4,1,1*%
%TO.N,GND*%
X741920000Y-273270000D03*
%TO.P,SW4,2,2*%
%TO.N,Bttn3*%
X735570000Y-275810000D03*
%TD*%
D14*
%TO.P,U1,1,COM*%
%TO.N,SIG*%
X405765000Y-319610000D03*
%TO.P,U1,2,I7*%
%TO.N,Net-(U1-I7)*%
X404495000Y-319610000D03*
%TO.P,U1,3,I6*%
%TO.N,Net-(U1-I6)*%
X403225000Y-319610000D03*
%TO.P,U1,4,I5*%
%TO.N,Net-(U1-I5)*%
X401955000Y-319610000D03*
%TO.P,U1,5,I4*%
%TO.N,Net-(U1-I4)*%
X400685000Y-319610000D03*
%TO.P,U1,6,I3*%
%TO.N,Net-(U1-I3)*%
X399415000Y-319610000D03*
%TO.P,U1,7,I2*%
%TO.N,Net-(U1-I2)*%
X398145000Y-319610000D03*
%TO.P,U1,8,I1*%
%TO.N,Net-(U1-I1)*%
X396875000Y-319610000D03*
%TO.P,U1,9,I0*%
%TO.N,Net-(U1-I0)*%
X395605000Y-319610000D03*
%TO.P,U1,10,S0*%
%TO.N,S0*%
X394335000Y-319610000D03*
%TO.P,U1,11,S1*%
%TO.N,S1*%
X393065000Y-319610000D03*
%TO.P,U1,12,GND*%
%TO.N,GND*%
X391795000Y-319610000D03*
%TO.P,U1,13,S3*%
%TO.N,S3*%
X391795000Y-310310000D03*
%TO.P,U1,14,S2*%
%TO.N,S2*%
X393065000Y-310310000D03*
%TO.P,U1,15,~{E}*%
%TO.N,GND*%
X394335000Y-310310000D03*
%TO.P,U1,16,I15*%
%TO.N,unconnected-(U1-I15-Pad16)*%
X395605000Y-310310000D03*
%TO.P,U1,17,I14*%
%TO.N,unconnected-(U1-I14-Pad17)*%
X396875000Y-310310000D03*
%TO.P,U1,18,I13*%
%TO.N,unconnected-(U1-I13-Pad18)*%
X398145000Y-310310000D03*
%TO.P,U1,19,I12*%
%TO.N,unconnected-(U1-I12-Pad19)*%
X399415000Y-310310000D03*
%TO.P,U1,20,I11*%
%TO.N,Net-(U1-I11)*%
X400685000Y-310310000D03*
%TO.P,U1,21,I10*%
%TO.N,Net-(U1-I10)*%
X401955000Y-310310000D03*
%TO.P,U1,22,I9*%
%TO.N,Net-(U1-I9)*%
X403225000Y-310310000D03*
%TO.P,U1,23,I8*%
%TO.N,Net-(U1-I8)*%
X404495000Y-310310000D03*
%TO.P,U1,24,VCC*%
%TO.N,3V3*%
X405765000Y-310310000D03*
%TD*%
D15*
%TO.P,A1,1,GPIO0*%
%TO.N,unconnected-(A1-GPIO0-Pad1)*%
X402120000Y-199390000D03*
D16*
X401320000Y-199390000D03*
D17*
%TO.P,A1,2,GPIO1*%
%TO.N,unconnected-(A1-GPIO1-Pad2)*%
X402120000Y-201930000D03*
D18*
X401320000Y-201930000D03*
D19*
%TO.P,A1,3,GND*%
%TO.N,GND*%
X402120000Y-204470000D03*
D20*
X401320000Y-204470000D03*
D17*
%TO.P,A1,4,GPIO2*%
%TO.N,S0*%
X402120000Y-207010000D03*
D18*
X401320000Y-207010000D03*
D17*
%TO.P,A1,5,GPIO3*%
%TO.N,S1*%
X402120000Y-209550000D03*
D18*
X401320000Y-209550000D03*
D17*
%TO.P,A1,6,GPIO4*%
%TO.N,S2*%
X402120000Y-212090000D03*
D18*
X401320000Y-212090000D03*
D17*
%TO.P,A1,7,GPIO5*%
%TO.N,S3*%
X402120000Y-214630000D03*
D18*
X401320000Y-214630000D03*
D19*
%TO.P,A1,8,GND*%
%TO.N,GND*%
X402120000Y-217170000D03*
D20*
X401320000Y-217170000D03*
D17*
%TO.P,A1,9,GPIO6*%
%TO.N,Bttn1*%
X402120000Y-219710000D03*
D18*
X401320000Y-219710000D03*
D17*
%TO.P,A1,10,GPIO7*%
%TO.N,Bttn2*%
X402120000Y-222250000D03*
D18*
X401320000Y-222250000D03*
D17*
%TO.P,A1,11,GPIO8*%
%TO.N,Bttn3*%
X402120000Y-224790000D03*
D18*
X401320000Y-224790000D03*
D17*
%TO.P,A1,12,GPIO9*%
%TO.N,Bttn4*%
X402120000Y-227330000D03*
D18*
X401320000Y-227330000D03*
D19*
%TO.P,A1,13,GND*%
%TO.N,GND*%
X402120000Y-229870000D03*
D20*
X401320000Y-229870000D03*
D17*
%TO.P,A1,14,GPIO10*%
%TO.N,Bttn5*%
X402120000Y-232410000D03*
D18*
X401320000Y-232410000D03*
D17*
%TO.P,A1,15,GPIO11*%
%TO.N,Bttn6*%
X402120000Y-234950000D03*
D18*
X401320000Y-234950000D03*
D17*
%TO.P,A1,16,GPIO12*%
%TO.N,unconnected-(A1-GPIO12-Pad16)*%
X402120000Y-237490000D03*
D18*
X401320000Y-237490000D03*
D17*
%TO.P,A1,17,GPIO13*%
%TO.N,unconnected-(A1-GPIO13-Pad17)*%
X402120000Y-240030000D03*
D18*
X401320000Y-240030000D03*
D19*
%TO.P,A1,18,GND*%
%TO.N,GND*%
X402120000Y-242570000D03*
D20*
X401320000Y-242570000D03*
D17*
%TO.P,A1,19,GPIO14*%
%TO.N,unconnected-(A1-GPIO14-Pad19)*%
X402120000Y-245110000D03*
D18*
X401320000Y-245110000D03*
D17*
%TO.P,A1,20,GPIO15*%
%TO.N,unconnected-(A1-GPIO15-Pad20)*%
X402120000Y-247650000D03*
D18*
X401320000Y-247650000D03*
%TO.P,A1,21,GPIO16*%
%TO.N,unconnected-(A1-GPIO16-Pad21)*%
X383540000Y-247650000D03*
D17*
X382740000Y-247650000D03*
D18*
%TO.P,A1,22,GPIO17*%
%TO.N,unconnected-(A1-GPIO17-Pad22)*%
X383540000Y-245110000D03*
D17*
X382740000Y-245110000D03*
D21*
%TO.P,A1,23,GND*%
%TO.N,GND*%
X383540000Y-242570000D03*
D15*
X382740000Y-242570000D03*
D18*
%TO.P,A1,24,GPIO18*%
%TO.N,unconnected-(A1-GPIO18-Pad24)*%
X383540000Y-240030000D03*
D17*
X382740000Y-240030000D03*
D18*
%TO.P,A1,25,GPIO19*%
%TO.N,unconnected-(A1-GPIO19-Pad25)*%
X383540000Y-237490000D03*
D17*
X382740000Y-237490000D03*
D18*
%TO.P,A1,26,GPIO20*%
%TO.N,unconnected-(A1-GPIO20-Pad26)*%
X383540000Y-234950000D03*
D17*
X382740000Y-234950000D03*
D18*
%TO.P,A1,27,GPIO21*%
%TO.N,unconnected-(A1-GPIO21-Pad27)*%
X383540000Y-232410000D03*
D17*
X382740000Y-232410000D03*
D21*
%TO.P,A1,28,GND*%
%TO.N,GND*%
X383540000Y-229870000D03*
D15*
X382740000Y-229870000D03*
D18*
%TO.P,A1,29,GPIO22*%
%TO.N,unconnected-(A1-GPIO22-Pad29)*%
X383540000Y-227330000D03*
D17*
X382740000Y-227330000D03*
D18*
%TO.P,A1,30,RUN*%
%TO.N,unconnected-(A1-RUN-Pad30)*%
X383540000Y-224790000D03*
D17*
X382740000Y-224790000D03*
D18*
%TO.P,A1,31,GPIO26_ADC0*%
%TO.N,SIG*%
X383540000Y-222250000D03*
D17*
X382740000Y-222250000D03*
D18*
%TO.P,A1,32,GPIO27_ADC1*%
%TO.N,unconnected-(A1-GPIO27_ADC1-Pad32)*%
X383540000Y-219710000D03*
D17*
X382740000Y-219710000D03*
D21*
%TO.P,A1,33,AGND*%
%TO.N,GND*%
X383540000Y-217170000D03*
D15*
X382740000Y-217170000D03*
D18*
%TO.P,A1,34,GPIO28_ADC2*%
%TO.N,unconnected-(A1-GPIO28_ADC2-Pad34)*%
X383540000Y-214630000D03*
D17*
X382740000Y-214630000D03*
D18*
%TO.P,A1,35,ADC_VREF*%
%TO.N,REFV*%
X383540000Y-212090000D03*
D17*
X382740000Y-212090000D03*
D18*
%TO.P,A1,36,3V3*%
%TO.N,3V3*%
X383540000Y-209550000D03*
D17*
X382740000Y-209550000D03*
D18*
%TO.P,A1,37,3V3_EN*%
%TO.N,unconnected-(A1-3V3_EN-Pad37)*%
X383540000Y-207010000D03*
D17*
X382740000Y-207010000D03*
D21*
%TO.P,A1,38,GND*%
%TO.N,GND*%
X383540000Y-204470000D03*
D15*
X382740000Y-204470000D03*
D18*
%TO.P,A1,39,VSYS*%
%TO.N,unconnected-(A1-VSYS-Pad39)*%
X383540000Y-201930000D03*
D17*
X382740000Y-201930000D03*
D18*
%TO.P,A1,40,VBUS*%
%TO.N,unconnected-(A1-VBUS-Pad40)*%
X383540000Y-199390000D03*
D17*
X382740000Y-199390000D03*
%TD*%
D22*
%TO.N,GND*%
X394335000Y-312420000D03*
X391795000Y-321310000D03*
X391795000Y-317500000D03*
%TO.N,Bttn3*%
X407670000Y-224790000D03*
%TO.N,Bttn1*%
X407670000Y-219710000D03*
%TO.N,Bttn5*%
X407670000Y-232410000D03*
%TO.N,Bttn2*%
X407670000Y-222250000D03*
%TO.N,Bttn6*%
X407670000Y-234950000D03*
%TO.N,Bttn4*%
X407670000Y-227330000D03*
%TO.N,Net-(U1-I8)*%
X405203123Y-311690317D03*
%TO.N,Net-(U1-I9)*%
X403225000Y-311785000D03*
%TO.N,Net-(U1-I10)*%
X401955000Y-311785000D03*
%TO.N,Net-(U1-I11)*%
X400685000Y-311785000D03*
%TD*%
D23*
%TO.N,GND*%
X385229000Y-313044000D02*
X385229000Y-218859000D01*
X385229000Y-218859000D02*
X383540000Y-217170000D01*
X394335000Y-310310000D02*
X394335000Y-312420000D01*
X391795000Y-319610000D02*
X391795000Y-321310000D01*
X391795000Y-319610000D02*
X385229000Y-313044000D01*
X391795000Y-317500000D02*
X391795000Y-319610000D01*
%TO.N,S2*%
X400032000Y-216485100D02*
X400032000Y-302318001D01*
X403376050Y-215731000D02*
X400786100Y-215731000D01*
X404021000Y-214173950D02*
X404021000Y-215086050D01*
X401937050Y-212090000D02*
X404021000Y-214173950D01*
X400032000Y-302318001D02*
X393065000Y-309285001D01*
X400786100Y-215731000D02*
X400032000Y-216485100D01*
X393065000Y-309285001D02*
X393065000Y-310310000D01*
X401320000Y-212090000D02*
X401937050Y-212090000D01*
X404021000Y-215086050D02*
X403376050Y-215731000D01*
%TO.N,SIG*%
X405765000Y-320634999D02*
X402549999Y-323850000D01*
X402549999Y-323850000D02*
X391795000Y-323850000D01*
X384646000Y-224156000D02*
X382740000Y-222250000D01*
X405765000Y-319610000D02*
X405765000Y-320634999D01*
X391795000Y-323850000D02*
X384646000Y-316701000D01*
X384646000Y-316701000D02*
X384646000Y-224156000D01*
%TO.N,Bttn3*%
X674452000Y-214692000D02*
X735570000Y-275810000D01*
X417768000Y-214692000D02*
X674452000Y-214692000D01*
X407670000Y-224790000D02*
X417768000Y-214692000D01*
%TO.N,S3*%
X399631000Y-216319000D02*
X399631000Y-301449001D01*
X391795000Y-309285001D02*
X391795000Y-310310000D01*
X399631000Y-301449001D02*
X391795000Y-309285001D01*
X401320000Y-214630000D02*
X399631000Y-216319000D01*
%TO.N,3V3*%
X403376050Y-205909000D02*
X397596050Y-205909000D01*
X388121000Y-204969000D02*
X383540000Y-209550000D01*
X396656050Y-204969000D02*
X388121000Y-204969000D01*
X397596050Y-205909000D02*
X396656050Y-204969000D01*
X405765000Y-310310000D02*
X405765000Y-208297950D01*
X405765000Y-208297950D02*
X403376050Y-205909000D01*
%TO.N,S0*%
X394936000Y-309244032D02*
X394936000Y-319009000D01*
X401320000Y-207010000D02*
X401937050Y-207010000D01*
X404896000Y-299284032D02*
X394936000Y-309244032D01*
X394936000Y-319009000D02*
X394335000Y-319610000D01*
X404896000Y-209968950D02*
X404896000Y-299284032D01*
X401937050Y-207010000D02*
X404896000Y-209968950D01*
%TO.N,Bttn1*%
X413490000Y-213890000D02*
X685650000Y-213890000D01*
X407670000Y-219710000D02*
X413490000Y-213890000D01*
%TO.N,Bttn5*%
X409575000Y-230505000D02*
X409575000Y-226695000D01*
X653644000Y-215494000D02*
X658495000Y-220345000D01*
X409575000Y-226695000D02*
X420776000Y-215494000D01*
X658495000Y-310575000D02*
X685650000Y-337730000D01*
X420776000Y-215494000D02*
X653644000Y-215494000D01*
X658495000Y-220345000D02*
X658495000Y-310575000D01*
X407670000Y-232410000D02*
X409575000Y-230505000D01*
%TO.N,S1*%
X393666000Y-309251101D02*
X393666000Y-319009000D01*
X402451370Y-209550000D02*
X404495000Y-211593630D01*
X404495000Y-211593630D02*
X404495000Y-298422101D01*
X401320000Y-209550000D02*
X402451370Y-209550000D01*
X404495000Y-298422101D02*
X393666000Y-309251101D01*
X393666000Y-319009000D02*
X393065000Y-319610000D01*
%TO.N,Bttn2*%
X415629000Y-214291000D02*
X684069686Y-214291000D01*
X407670000Y-222250000D02*
X415629000Y-214291000D01*
X685069686Y-215291000D02*
X686230314Y-215291000D01*
X684069686Y-214291000D02*
X685069686Y-215291000D01*
X686230314Y-215291000D02*
X687631314Y-213890000D01*
X687631314Y-213890000D02*
X735570000Y-213890000D01*
%TO.N,Bttn6*%
X729123366Y-342621000D02*
X734014366Y-337730000D01*
X684249000Y-337149686D02*
X684249000Y-338310314D01*
X658094000Y-223119000D02*
X658094000Y-310994686D01*
X650875000Y-215900000D02*
X658094000Y-223119000D01*
X684249000Y-338310314D02*
X685069686Y-339131000D01*
X658094000Y-310994686D02*
X684249000Y-337149686D01*
X685069686Y-339131000D02*
X685069686Y-339204502D01*
X690601000Y-342621000D02*
X729123366Y-342621000D01*
X734014366Y-337730000D02*
X735570000Y-337730000D01*
X688486184Y-342621000D02*
X690433816Y-342621000D01*
X690517408Y-342537408D02*
X690601000Y-342621000D01*
X685069686Y-339204502D02*
X688486184Y-342621000D01*
X690433816Y-342621000D02*
X690517408Y-342537408D01*
X407670000Y-234950000D02*
X410210000Y-232410000D01*
X420937100Y-215900000D02*
X650875000Y-215900000D01*
X410210000Y-226627100D02*
X420937100Y-215900000D01*
X410210000Y-232410000D02*
X410210000Y-226627100D01*
%TO.N,Bttn4*%
X685650000Y-226457100D02*
X685650000Y-275810000D01*
X674285900Y-215093000D02*
X685650000Y-226457100D01*
X419907000Y-215093000D02*
X674285900Y-215093000D01*
X407670000Y-227330000D02*
X419907000Y-215093000D01*
%TO.N,Net-(U1-I0)*%
X399230001Y-314960000D02*
X402781968Y-314960000D01*
X395605000Y-319610000D02*
X395605000Y-318585001D01*
X402781968Y-314960000D02*
X424776860Y-292965108D01*
X395605000Y-318585001D02*
X399230001Y-314960000D01*
X424776860Y-292965108D02*
X424776860Y-220730000D01*
%TO.N,Net-(U1-I1)*%
X396875000Y-319610000D02*
X396875000Y-318585001D01*
X402948068Y-315361000D02*
X445099873Y-273209195D01*
X396875000Y-318585001D02*
X400099001Y-315361000D01*
X445099873Y-273209195D02*
X445099873Y-220730000D01*
X400099001Y-315361000D02*
X402948068Y-315361000D01*
%TO.N,Net-(U1-I2)*%
X398145000Y-318585001D02*
X400968001Y-315762000D01*
X400968001Y-315762000D02*
X403114168Y-315762000D01*
X465422885Y-253453283D02*
X465422885Y-220730000D01*
X403114168Y-315762000D02*
X465422885Y-253453283D01*
X398145000Y-319610000D02*
X398145000Y-318585001D01*
%TO.N,Net-(U1-I3)*%
X476885000Y-237490000D02*
X485745898Y-228629102D01*
X399415000Y-319610000D02*
X399415000Y-318518001D01*
X399415000Y-318518001D02*
X401770001Y-316163000D01*
X476885000Y-242558268D02*
X476885000Y-237490000D01*
X485745898Y-228629102D02*
X485745898Y-220730000D01*
X403280268Y-316163000D02*
X476885000Y-242558268D01*
X401770001Y-316163000D02*
X403280268Y-316163000D01*
%TO.N,Net-(U1-I4)*%
X506068911Y-220730000D02*
X506068911Y-224181089D01*
X486146898Y-228795202D02*
X477286000Y-237656100D01*
X493645000Y-220730000D02*
X486146898Y-228228102D01*
X496320000Y-220730000D02*
X493645000Y-220730000D01*
X403526000Y-316564000D02*
X401955000Y-316564000D01*
X497840000Y-222250000D02*
X496320000Y-220730000D01*
X477286000Y-237656100D02*
X477286000Y-242724368D01*
X504190000Y-226060000D02*
X499745000Y-226060000D01*
X401955000Y-316564000D02*
X400685000Y-317834000D01*
X476885000Y-243205000D02*
X403526000Y-316564000D01*
X506068911Y-224181089D02*
X504190000Y-226060000D01*
X476885000Y-243125368D02*
X476885000Y-243205000D01*
X486146898Y-228228102D02*
X486146898Y-228795202D01*
X400685000Y-317834000D02*
X400685000Y-319610000D01*
X477286000Y-242724368D02*
X476885000Y-243125368D01*
X497840000Y-224155000D02*
X497840000Y-222250000D01*
X499745000Y-226060000D02*
X497840000Y-224155000D01*
%TO.N,Net-(U1-I5)*%
X526391924Y-240688076D02*
X455295000Y-311785000D01*
X401955000Y-318702100D02*
X401955000Y-319610000D01*
X455295000Y-311785000D02*
X408872100Y-311785000D01*
X526391924Y-220730000D02*
X526391924Y-240688076D01*
X408872100Y-311785000D02*
X401955000Y-318702100D01*
%TO.N,Net-(U1-I6)*%
X403225000Y-318585001D02*
X409624001Y-312186000D01*
X403225000Y-319610000D02*
X403225000Y-318585001D01*
X409624001Y-312186000D02*
X456849926Y-312186000D01*
X456849926Y-312186000D02*
X546714936Y-222320990D01*
X546714936Y-222320990D02*
X546714936Y-220730000D01*
%TO.N,Net-(U1-I7)*%
X475180949Y-312587000D02*
X567037949Y-220730000D01*
X404495000Y-318585001D02*
X410493001Y-312587000D01*
X404495000Y-319610000D02*
X404495000Y-318585001D01*
X410493001Y-312587000D02*
X475180949Y-312587000D01*
%TO.N,Net-(U1-I8)*%
X404495000Y-310310000D02*
X404495000Y-310982194D01*
X404495000Y-310982194D02*
X405203123Y-311690317D01*
%TO.N,Net-(U1-I9)*%
X403225000Y-311785000D02*
X403225000Y-310310000D01*
%TO.N,Net-(U1-I10)*%
X401955000Y-310310000D02*
X401955000Y-311785000D01*
%TO.N,Net-(U1-I11)*%
X400685000Y-310310000D02*
X400685000Y-311785000D01*
%TD*%
M02*
